<svg width="98" height="98" viewBox="0 0 98 98" fill="none" xmlns="http://www.w3.org/2000/svg">
<g filter="url(#filter0_d_1261_2190)">
<rect x="4" y="4" width="90" height="90" rx="45" fill="white"/>
</g>
<g clip-path="url(#clip0_1261_2190)">
<mask id="mask0_1261_2190" style="mask-type:luminance" maskUnits="userSpaceOnUse" x="40" y="25" width="12" height="19">
<path d="M40.7244 26.2235C42.7937 32.5539 43.5785 43.8467 49.6366 43.8467C50.0977 43.8467 50.5677 43.8023 51.0301 43.7128C45.5321 42.4296 44.875 31.26 41.5176 25.4759C41.2496 25.7198 40.9868 25.9692 40.7292 26.224" fill="white"/>
</mask>
<g mask="url(#mask0_1261_2190)">
<mask id="mask1_1261_2190" style="mask-type:luminance" maskUnits="userSpaceOnUse" x="40" y="25" width="12" height="19">
<path d="M51.0404 43.8435H40.739V25.4719H51.0404V43.8435Z" fill="white"/>
</mask>
<g mask="url(#mask1_1261_2190)">
<mask id="mask2_1261_2190" style="mask-type:luminance" maskUnits="userSpaceOnUse" x="40" y="25" width="12" height="19">
<path d="M51.0404 25.4729V43.8445H40.739V25.4729H51.0404Z" fill="white"/>
</mask>
<g mask="url(#mask2_1261_2190)">
<path d="M51.0404 43.8435H40.739V25.4719H51.0404V43.8435Z" fill="url(#paint0_linear_1261_2190)"/>
</g>
</g>
</g>
<mask id="mask3_1261_2190" style="mask-type:luminance" maskUnits="userSpaceOnUse" x="41" y="24" width="12" height="20">
<path d="M41.5127 25.4756C44.87 31.2601 45.5223 42.4297 51.0252 43.7124C51.4575 43.6326 51.8912 43.5129 52.3252 43.3612C47.3858 40.9403 46.0202 30.0949 42.207 24.8726C41.9764 25.065 41.7441 25.2658 41.5122 25.4756" fill="white"/>
</mask>
<g mask="url(#mask3_1261_2190)">
<mask id="mask4_1261_2190" style="mask-type:luminance" maskUnits="userSpaceOnUse" x="41" y="24" width="12" height="20">
<path d="M52.3482 43.7244H41.5356V24.8801H52.3482V43.7244Z" fill="white"/>
</mask>
<g mask="url(#mask4_1261_2190)">
<mask id="mask5_1261_2190" style="mask-type:luminance" maskUnits="userSpaceOnUse" x="41" y="24" width="12" height="20">
<path d="M52.3483 24.8845V43.7288H41.5361V24.8845H52.3483Z" fill="white"/>
</mask>
<g mask="url(#mask5_1261_2190)">
<path d="M52.3482 43.7244H41.5356V24.8801H52.3482V43.7244Z" fill="url(#paint1_linear_1261_2190)"/>
</g>
</g>
</g>
<path d="M46.3507 22.0351C45.8911 22.0351 45.4252 22.0798 44.956 22.1628C43.7305 22.3926 42.4871 22.9204 41.2322 23.719C41.5749 24.0573 41.9005 24.4441 42.2075 24.866C43.4841 23.8064 44.7505 23.0251 46.013 22.5553C46.4866 22.3792 46.9596 22.2477 47.4332 22.1596C47.0792 22.071 46.7156 22.0269 46.3507 22.0281" fill="#14559A"/>
<path d="M56.0738 42.4703C55.8312 42.2355 55.6017 41.9874 55.3864 41.7273C54.3619 42.4537 53.34 43.0039 52.3245 43.3613C52.6851 43.5375 53.0649 43.6677 53.4657 43.7443C53.7772 43.8081 54.0996 43.8401 54.4391 43.8401C55.5779 43.8401 56.4779 43.7047 57.2445 43.3377C56.8232 43.1092 56.4351 42.8143 56.0732 42.4633" fill="#1969BC"/>
<mask id="mask6_1261_2190" style="mask-type:luminance" maskUnits="userSpaceOnUse" x="46" y="22" width="11" height="20">
<path d="M46.0129 22.5628C50.9864 25.1638 51.4223 36.943 55.3862 41.7263C55.6563 41.5354 55.9207 41.3366 56.179 41.13C53.696 35.6319 52.9848 23.5449 47.4335 22.166C46.9493 22.2566 46.4738 22.3891 46.0125 22.5619" fill="white"/>
</mask>
<g mask="url(#mask6_1261_2190)">
<mask id="mask7_1261_2190" style="mask-type:luminance" maskUnits="userSpaceOnUse" x="46" y="22" width="11" height="20">
<path d="M56.21 41.7454H46.0386V22.185H56.2056V41.7454H56.21Z" fill="white"/>
</mask>
<g mask="url(#mask7_1261_2190)">
<mask id="mask8_1261_2190" style="mask-type:luminance" maskUnits="userSpaceOnUse" x="46" y="22" width="11" height="20">
<path d="M56.21 22.1841V41.7454H46.0386V22.185H56.2056L56.21 22.1841Z" fill="white"/>
</mask>
<g mask="url(#mask8_1261_2190)">
<path d="M56.21 41.7454H46.0386V22.185H56.2056V41.7454H56.21Z" fill="url(#paint2_linear_1261_2190)"/>
</g>
</g>
</g>
<mask id="mask9_1261_2190" style="mask-type:luminance" maskUnits="userSpaceOnUse" x="42" y="22" width="14" height="22">
<path d="M42.2078 24.8729C46.0209 30.0952 47.3857 40.9415 52.326 43.3616C53.3458 43.0033 54.3629 42.4526 55.3876 41.7268C51.4193 36.9381 50.9874 25.1638 46.0143 22.5632C44.7515 23.0324 43.4843 23.8145 42.2086 24.8689" fill="white"/>
</mask>
<g mask="url(#mask9_1261_2190)">
<mask id="mask10_1261_2190" style="mask-type:luminance" maskUnits="userSpaceOnUse" x="42" y="22" width="14" height="22">
<path d="M55.3891 43.3652H42.2092V22.57H55.3891V43.3652Z" fill="white"/>
</mask>
<g mask="url(#mask10_1261_2190)">
<mask id="mask11_1261_2190" style="mask-type:luminance" maskUnits="userSpaceOnUse" x="42" y="22" width="14" height="22">
<path d="M55.3891 22.5665V43.3652H42.2092V22.5665H55.3891Z" fill="white"/>
</mask>
<g mask="url(#mask11_1261_2190)">
<path d="M55.3891 43.3652H42.2092V22.57H55.3891V43.3652Z" fill="url(#paint3_linear_1261_2190)"/>
</g>
</g>
</g>
<path d="M40.606 24.1427L40.0762 24.5257C40.3079 25.0319 40.523 25.6006 40.7228 26.2172L41.5117 25.4691C41.2296 24.984 40.9372 24.5372 40.6053 24.137" fill="#2B74B1"/>
<path d="M41.232 23.7261L40.6052 24.1435C40.9412 24.5637 41.2444 25.0091 41.5122 25.4756L42.2144 24.8731C41.9212 24.4647 41.595 24.0811 41.2391 23.7261" fill="#125A9E"/>
<path d="M38.2844 26.0724C38.8819 25.5018 39.4812 24.9892 40.0768 24.5405L39.6491 23.7107C39.1678 24.2941 38.73 25.0639 38.2844 26.0737" fill="#0D82CA"/>
<path d="M38.7159 22.549C39.0594 22.8375 39.367 23.2339 39.6491 23.7088C39.7346 23.603 39.8251 23.5014 39.9204 23.4043C39.5426 23.047 39.1142 22.7474 38.6489 22.5151L38.7128 22.5419" fill="#0D82CA"/>
<mask id="mask12_1261_2190" style="mask-type:luminance" maskUnits="userSpaceOnUse" x="24" y="22" width="12" height="18">
<path d="M24.2439 39.1497C29.0405 29.9075 31.3129 24.0583 35.3234 22.4749C31.1883 24.0933 26.5309 30.198 24.2439 39.1497Z" fill="white"/>
</mask>
<g mask="url(#mask12_1261_2190)">
<mask id="mask13_1261_2190" style="mask-type:luminance" maskUnits="userSpaceOnUse" x="24" y="22" width="12" height="18">
<path d="M24.2351 22.4825H35.3146V39.1572H24.2351V22.4825Z" fill="white"/>
</mask>
<g mask="url(#mask13_1261_2190)">
<mask id="mask14_1261_2190" style="mask-type:luminance" maskUnits="userSpaceOnUse" x="24" y="22" width="12" height="18">
<path d="M24.2351 39.1567V22.4824H35.3146V39.1567H24.2351Z" fill="white"/>
</mask>
<g mask="url(#mask14_1261_2190)">
<path d="M24.2351 22.4825H35.3146V39.1572H24.2351V22.4825Z" fill="url(#paint4_linear_1261_2190)"/>
</g>
</g>
</g>
<path d="M39.9212 23.4043L39.6499 23.7088C39.8071 23.9756 39.9499 24.2507 40.0776 24.5328L40.6073 24.1498C40.3903 23.8817 40.1605 23.6341 39.9218 23.4113" fill="#127BCA"/>
<mask id="mask15_1261_2190" style="mask-type:luminance" maskUnits="userSpaceOnUse" x="15" y="23" width="25" height="30">
<mask id="mask16_1261_2190" style="mask-type:luminance" maskUnits="userSpaceOnUse" x="3" y="13" width="49" height="51">
<path d="M3.06079 13.7067H51.7143V63.0002H3.06079V13.7067Z" fill="white"/>
</mask>
<g mask="url(#mask16_1261_2190)">
<mask id="mask17_1261_2190" style="mask-type:luminance" maskUnits="userSpaceOnUse" x="2" y="13" width="51" height="51">
<path d="M2.61743 13.2633H52.1577V63.4436H2.61743V13.2633Z" fill="white"/>
</mask>
<g mask="url(#mask17_1261_2190)">
<mask id="mask18_1261_2190" style="mask-type:luminance" maskUnits="userSpaceOnUse" x="15" y="23" width="25" height="30">
<path d="M15.2383 52.5964H39.5229V23.9944H15.2383V52.5964Z" fill="white"/>
</mask>
<g mask="url(#mask18_1261_2190)">
<mask id="mask19_1261_2190" style="mask-type:luminance" maskUnits="userSpaceOnUse" x="3" y="13" width="49" height="51">
<path d="M3.06104 13.7067H51.7145V63.0002H3.06104V13.7067Z" fill="white"/>
</mask>
<g mask="url(#mask19_1261_2190)">
<mask id="mask20_1261_2190" style="mask-type:luminance" maskUnits="userSpaceOnUse" x="15" y="23" width="25" height="30">
<path d="M15.2383 52.5964H39.5229V23.9944H15.2383V52.5964Z" fill="white"/>
</mask>
<g mask="url(#mask20_1261_2190)">
<mask id="mask21_1261_2190" style="mask-type:luminance" maskUnits="userSpaceOnUse" x="15" y="23" width="25" height="30">
<path d="M15.2427 46.094L26.8684 52.5964L39.5282 30.4985L27.9042 23.9939L15.2431 46.0936L15.2427 46.094Z" fill="white"/>
</mask>
<g mask="url(#mask21_1261_2190)">
<mask id="mask22_1261_2190" style="mask-type:luminance" maskUnits="userSpaceOnUse" x="3" y="13" width="49" height="51">
<path d="M51.7144 30.8665L33.7437 63.0002L3.05957 45.8409L21.0303 13.7071L51.7144 30.8665Z" fill="white"/>
</mask>
<g mask="url(#mask22_1261_2190)">
<mask id="mask23_1261_2190" style="mask-type:luminance" maskUnits="userSpaceOnUse" x="3" y="13" width="49" height="51">
<path d="M51.7144 30.8665L33.7436 63.0002L3.05908 45.8409L21.0298 13.7071L51.7144 30.8665Z" fill="white"/>
</mask>
<g mask="url(#mask23_1261_2190)">
<path d="M51.7144 30.8665L33.7437 63.0002L3.05957 45.8409L21.0303 13.7071L51.7144 30.8665Z" fill="url(#paint5_linear_1261_2190)"/>
</g>
</g>
</g>
</g>
</g>
</g>
</g>
</g>
</mask>
<g mask="url(#mask15_1261_2190)">
<mask id="mask24_1261_2190" style="mask-type:luminance" maskUnits="userSpaceOnUse" x="26" y="31" width="11" height="14">
<path d="M26.0417 31.5019H36.3444V44.4211H26.0417V31.5019Z" fill="white"/>
</mask>
<g mask="url(#mask24_1261_2190)">
<mask id="mask25_1261_2190" style="mask-type:luminance" maskUnits="userSpaceOnUse" x="26" y="31" width="11" height="14">
<path d="M26.0405 44.4211H36.3405V31.5175H26.0405V44.4211Z" fill="white"/>
</mask>
<g mask="url(#mask25_1261_2190)">
<mask id="mask26_1261_2190" style="mask-type:luminance" maskUnits="userSpaceOnUse" x="26" y="31" width="11" height="14">
<path d="M26.4211 44.3879L26.3346 44.3981C26.3275 44.3999 26.3231 44.3999 26.3169 44.4003L26.2433 44.4078C26.2397 44.4078 26.2344 44.4087 26.2313 44.4087L26.0548 44.4211H26.0371C30.8914 44.285 33.1106 41.8548 34.2111 38.3302L36.338 31.5179C34.3046 34.3791 32.2623 37.7897 30.2081 41.6122C29.2193 43.4545 27.7114 44.2283 26.4211 44.3879Z" fill="white"/>
</mask>
<g mask="url(#mask26_1261_2190)">
<mask id="mask27_1261_2190" style="mask-type:luminance" maskUnits="userSpaceOnUse" x="26" y="31" width="11" height="14">
<path d="M26.0415 31.5018H36.3415V44.4055H26.0415V31.5018Z" fill="white"/>
</mask>
<g mask="url(#mask27_1261_2190)">
<mask id="mask28_1261_2190" style="mask-type:luminance" maskUnits="userSpaceOnUse" x="26" y="31" width="11" height="14">
<path d="M26.0415 44.4055V31.5018H36.3424V44.4055H26.0415Z" fill="white"/>
</mask>
<g mask="url(#mask28_1261_2190)">
<path d="M26.0415 31.5018H36.3415V44.4055H26.0415V31.5018Z" fill="url(#paint6_linear_1261_2190)"/>
</g>
</g>
</g>
</g>
</g>
</g>
<mask id="mask29_1261_2190" style="mask-type:luminance" maskUnits="userSpaceOnUse" x="26" y="26" width="13" height="19">
<path d="M26.4213 44.3862V44.3879C27.7125 44.2239 29.2147 43.4555 30.2079 41.6123C32.2621 37.7915 34.3048 34.3792 36.3356 31.518C37.0751 29.1972 37.6853 27.4219 38.2834 26.0713C34.2352 29.9288 30.1693 36.3332 26.4204 44.3862" fill="white"/>
</mask>
<g mask="url(#mask29_1261_2190)">
<mask id="mask30_1261_2190" style="mask-type:luminance" maskUnits="userSpaceOnUse" x="26" y="26" width="13" height="19">
<path d="M26.448 26.0855H38.3105V44.3977H26.448V26.0855Z" fill="white"/>
</mask>
<g mask="url(#mask30_1261_2190)">
<mask id="mask31_1261_2190" style="mask-type:luminance" maskUnits="userSpaceOnUse" x="26" y="26" width="13" height="19">
<path d="M26.448 44.4026V26.0904H38.3105V44.4026H26.448Z" fill="white"/>
</mask>
<g mask="url(#mask31_1261_2190)">
<path d="M26.448 26.0855H38.3105V44.3977H26.448V26.0855Z" fill="url(#paint7_linear_1261_2190)"/>
</g>
</g>
</g>
<path d="M24.2444 39.1499L21.4021 44.4299H23.2327C23.4637 42.6515 23.8013 40.8885 24.2438 39.1505" fill="#05A1E6"/>
<mask id="mask32_1261_2190" style="mask-type:luminance" maskUnits="userSpaceOnUse" x="23" y="22" width="17" height="23">
<path d="M36.8738 22.0754C36.861 22.078 36.8479 22.0797 36.8348 22.0803L36.7674 22.09L36.7266 22.0945L36.6544 22.1069L36.6233 22.1113L36.4672 22.1388L36.4495 22.1415L36.3741 22.1565L36.3364 22.1672L36.2624 22.1814C36.2513 22.1851 36.2398 22.1879 36.2283 22.1898L35.9711 22.2563C35.964 22.259 35.952 22.2616 35.9414 22.2652C35.9157 22.2709 35.8908 22.2802 35.8638 22.2882L35.8283 22.2984C35.8021 22.3047 35.7764 22.3125 35.7512 22.3219C35.7414 22.3242 35.7334 22.3281 35.7246 22.3281L35.5463 22.3902L35.4607 22.4213L35.4262 22.4359L35.3508 22.4625C35.3419 22.4669 35.3322 22.4705 35.3255 22.4749C31.315 24.0578 29.0426 29.9075 24.246 39.1496C23.803 40.8874 23.4653 42.6503 23.2346 44.4287H23.4918L25.9052 44.4243L26.0577 44.4207C26.1153 44.4176 26.1739 44.4145 26.2342 44.4083C26.2377 44.4083 26.243 44.4074 26.2453 44.4074C26.2705 44.403 26.2949 44.4017 26.3189 44.3999C26.3255 44.3994 26.3291 44.3995 26.3366 44.3977C26.3632 44.395 26.3934 44.3919 26.4231 44.3875V44.3857C30.1724 36.3328 34.2374 29.9244 38.286 26.0708C38.7316 25.0617 39.1697 24.2915 39.6508 23.7084C39.3692 23.2331 39.0611 22.8367 38.7179 22.5476C38.7135 22.5458 38.7108 22.545 38.7077 22.5414C38.6884 22.5332 38.6695 22.5242 38.651 22.5144C38.6324 22.504 38.6135 22.4944 38.5942 22.4855C38.5754 22.4777 38.557 22.4688 38.5392 22.4589C38.5148 22.4518 38.4962 22.4412 38.474 22.431C38.4563 22.4248 38.4408 22.4164 38.4239 22.4088C38.3885 22.3955 38.3517 22.38 38.3175 22.3645C38.3011 22.3592 38.2865 22.353 38.2723 22.3468C38.2453 22.3378 38.2188 22.3274 38.1929 22.3157C38.1796 22.3113 38.165 22.3069 38.1499 22.3024L38.0404 22.2647C38.0342 22.263 38.0324 22.263 38.0306 22.2603C37.9885 22.2474 37.9461 22.2354 37.9034 22.2244C37.8936 22.22 37.8857 22.2182 37.8746 22.2155C37.8364 22.2058 37.8036 22.1947 37.7682 22.1854C37.7593 22.1845 37.7504 22.1809 37.7429 22.1796C37.6564 22.1561 37.5655 22.1379 37.4755 22.1211C37.4675 22.1202 37.4569 22.1175 37.448 22.1157C37.409 22.1091 37.3713 22.1025 37.3327 22.098C37.3256 22.0945 37.3181 22.0945 37.3106 22.0927L37.1776 22.075C37.17 22.0741 37.162 22.0723 37.1532 22.0723C37.1177 22.0661 37.0822 22.0643 37.0485 22.0608L36.88 22.0758" fill="white"/>
</mask>
<g mask="url(#mask32_1261_2190)">
<mask id="mask33_1261_2190" style="mask-type:luminance" maskUnits="userSpaceOnUse" x="19" y="19" width="25" height="29">
<path d="M23.6901 47.2359L19.3696 22.7348L39.1157 19.2528L43.4361 43.7548L23.6901 47.2363V47.2359Z" fill="white"/>
</mask>
<g mask="url(#mask33_1261_2190)">
<mask id="mask34_1261_2190" style="mask-type:luminance" maskUnits="userSpaceOnUse" x="19" y="19" width="25" height="29">
<path d="M23.6901 47.2359L19.3696 22.7348L39.1157 19.2532L43.4361 43.7543L23.6901 47.2363V47.2359Z" fill="white"/>
</mask>
<g mask="url(#mask34_1261_2190)">
<path d="M23.6901 47.2359L19.3696 22.7348L39.1157 19.2528L43.4361 43.7548L23.6901 47.2363V47.2359Z" fill="url(#paint8_linear_1261_2190)"/>
</g>
</g>
</g>
<mask id="mask35_1261_2190" style="mask-type:luminance" maskUnits="userSpaceOnUse" x="61" y="22" width="9" height="13">
<path d="M64.1677 27.5583L61.8474 34.9595C64.3748 31.4744 66.8737 27.0919 69.2485 22.0327C66.4791 22.9036 65.0008 24.8944 64.1672 27.5583" fill="white"/>
</mask>
<g mask="url(#mask35_1261_2190)">
<mask id="mask36_1261_2190" style="mask-type:luminance" maskUnits="userSpaceOnUse" x="61" y="22" width="9" height="13">
<path d="M61.8501 22.0351H69.2512V34.9614H61.8501V22.0351Z" fill="white"/>
</mask>
<g mask="url(#mask36_1261_2190)">
<mask id="mask37_1261_2190" style="mask-type:luminance" maskUnits="userSpaceOnUse" x="61" y="22" width="9" height="13">
<path d="M61.8501 34.9614V22.0351H69.2512V34.9614H61.8501Z" fill="white"/>
</mask>
<g mask="url(#mask37_1261_2190)">
<path d="M61.8501 22.0351H69.2512V34.9614H61.8501V22.0351Z" fill="url(#paint9_linear_1261_2190)"/>
</g>
</g>
</g>
<mask id="mask38_1261_2190" style="mask-type:luminance" maskUnits="userSpaceOnUse" x="54" y="19" width="33" height="12">
<mask id="mask39_1261_2190" style="mask-type:luminance" maskUnits="userSpaceOnUse" x="54" y="19" width="33" height="12">
<path d="M54.3135 19.6486H86.4134V30.8354H54.3135V19.6486Z" fill="white"/>
</mask>
<g mask="url(#mask39_1261_2190)">
<mask id="mask40_1261_2190" style="mask-type:luminance" maskUnits="userSpaceOnUse" x="53" y="19" width="34" height="13">
<path d="M53.8745 19.2051H86.8567V31.281H53.8745V19.21V19.2051Z" fill="white"/>
</mask>
<g mask="url(#mask40_1261_2190)">
<mask id="mask41_1261_2190" style="mask-type:luminance" maskUnits="userSpaceOnUse" x="54" y="19" width="33" height="12">
<path d="M54.3135 30.835H86.4134V19.6508H54.3135V30.835Z" fill="white"/>
</mask>
<g mask="url(#mask41_1261_2190)">
<mask id="mask42_1261_2190" style="mask-type:luminance" maskUnits="userSpaceOnUse" x="54" y="19" width="33" height="12">
<path d="M54.3135 19.6486H86.4134V30.8354H54.3135V19.6486Z" fill="white"/>
</mask>
<g mask="url(#mask42_1261_2190)">
<mask id="mask43_1261_2190" style="mask-type:luminance" maskUnits="userSpaceOnUse" x="54" y="19" width="33" height="12">
<path d="M54.3135 30.835H86.4134V19.6508H54.3135V30.835Z" fill="white"/>
</mask>
<g mask="url(#mask43_1261_2190)">
<mask id="mask44_1261_2190" style="mask-type:luminance" maskUnits="userSpaceOnUse" x="54" y="19" width="33" height="12">
<path d="M54.3135 19.6508H86.4151V30.835H54.3135V19.6508Z" fill="white"/>
</mask>
<g mask="url(#mask44_1261_2190)">
<mask id="mask45_1261_2190" style="mask-type:luminance" maskUnits="userSpaceOnUse" x="54" y="19" width="33" height="12">
<path d="M86.4143 30.8376H54.3188V19.6539H86.4143V30.8376Z" fill="white"/>
</mask>
<g mask="url(#mask45_1261_2190)">
<mask id="mask46_1261_2190" style="mask-type:luminance" maskUnits="userSpaceOnUse" x="54" y="19" width="33" height="12">
<path d="M86.4143 19.649V30.8376H54.3188V19.6539H86.4143V19.649Z" fill="white"/>
</mask>
<g mask="url(#mask46_1261_2190)">
<path d="M86.4143 30.8376H54.3188V19.6539H86.4143V30.8376Z" fill="url(#paint10_linear_1261_2190)"/>
</g>
</g>
</g>
</g>
</g>
</g>
</g>
</g>
</mask>
<g mask="url(#mask38_1261_2190)">
<mask id="mask47_1261_2190" style="mask-type:luminance" maskUnits="userSpaceOnUse" x="57" y="19" width="22" height="27">
<path d="M57.8091 19.2208H78.864V45.6338H57.8091V19.2208Z" fill="white"/>
</mask>
<g mask="url(#mask47_1261_2190)">
<mask id="mask48_1261_2190" style="mask-type:luminance" maskUnits="userSpaceOnUse" x="61" y="21" width="15" height="23">
<path d="M61.5398 43.3103H75.152V21.5538H61.5398V43.3103Z" fill="white"/>
</mask>
<g mask="url(#mask48_1261_2190)">
<mask id="mask49_1261_2190" style="mask-type:luminance" maskUnits="userSpaceOnUse" x="61" y="21" width="15" height="23">
<path d="M61.928 43.1249L61.5422 43.3098C66.4674 41.1128 72.3433 32.3996 75.1553 21.5524H74.5855C68.1231 33.0967 66.0444 40.8246 61.928 43.1249Z" fill="white"/>
</mask>
<g mask="url(#mask49_1261_2190)">
<mask id="mask50_1261_2190" style="mask-type:luminance" maskUnits="userSpaceOnUse" x="57" y="19" width="22" height="27">
<path d="M78.8631 22.2002L74.732 45.6292L57.8086 42.6451L61.9401 19.2161L78.8631 22.2002Z" fill="white"/>
</mask>
<g mask="url(#mask50_1261_2190)">
<mask id="mask51_1261_2190" style="mask-type:luminance" maskUnits="userSpaceOnUse" x="57" y="19" width="22" height="27">
<path d="M78.8631 22.2002L74.732 45.6292L57.8086 42.6451L61.9397 19.2161L78.8631 22.2002Z" fill="white"/>
</mask>
<g mask="url(#mask51_1261_2190)">
<path d="M78.8631 22.2002L74.732 45.6292L57.8086 42.6451L61.9401 19.2161L78.8631 22.2002Z" fill="url(#paint11_linear_1261_2190)"/>
</g>
</g>
</g>
</g>
</g>
</g>
<path d="M58.7127 42.1556C59.785 40.8471 60.6576 38.6233 61.8486 34.9595C60.475 36.8469 59.0912 38.4701 57.6997 39.7939C57.9978 40.7105 58.3291 41.5097 58.7063 42.1556" fill="#079AE1"/>
<path d="M58.7127 42.1556C58.3488 42.6011 57.9627 42.9394 57.5318 43.1909L57.2458 43.3441C57.712 43.5962 58.222 43.7569 58.7484 43.8177H58.7522L58.9973 43.8394H59.0127L59.1307 43.8458H59.1473L59.275 43.8471L59.4058 43.8458C59.4192 43.8438 59.4326 43.8427 59.4461 43.8426L59.538 43.8394C59.5531 43.8389 59.568 43.8368 59.5827 43.833L59.672 43.8266L59.7148 43.8228L59.8105 43.8126L59.8476 43.8075L59.9497 43.7922C59.9605 43.7922 59.9688 43.7896 59.9803 43.7883L60.0952 43.7692H60.1016L60.3422 43.7181C59.7071 43.4851 59.1754 42.9362 58.7165 42.1543" fill="#1969BC"/>
<path d="M49.6316 43.8463C50.0992 43.8456 50.5658 43.8007 51.025 43.7123C51.4571 43.6325 51.8912 43.5125 52.3252 43.3612C52.6858 43.5374 53.0656 43.6676 53.4665 43.7442C53.778 43.808 54.1003 43.84 54.4399 43.84H49.6316V43.8463ZM54.4399 43.8463C55.5786 43.8463 56.4793 43.7187 57.2452 43.344C57.7112 43.5964 58.2213 43.7572 58.7478 43.8176H58.7516L58.9967 43.8393H59.012L59.1301 43.8457H59.1467L59.2744 43.847H54.4463L54.4399 43.8463Z" fill="#1E5CB3"/>
<path d="M59.2678 43.8465L59.3987 43.8452C59.412 43.8432 59.4254 43.8421 59.4389 43.842L59.5308 43.8388C59.5459 43.8383 59.5609 43.8362 59.5755 43.8324L59.6648 43.826L59.7095 43.8222L59.8053 43.812L59.8423 43.8069L59.9444 43.7916C59.9553 43.7916 59.9636 43.7897 59.9751 43.7877L60.0899 43.7686H60.0963L60.3389 43.7175C60.5644 43.8007 60.8031 43.8427 61.0436 43.8414L59.2691 43.8458L59.2678 43.8465Z" fill="#1D60B5"/>
<path d="M57.7008 39.8059L56.1804 41.1304L55.387 41.7265C55.6023 41.9867 55.8318 42.2347 56.0744 42.4695C56.4363 42.8206 56.8231 43.1161 57.2457 43.344L57.5316 43.1908C57.9625 42.9393 58.3487 42.601 58.7125 42.1555C58.3295 41.5172 58.0104 40.711 57.7014 39.8065" fill="#175FAB"/>
<mask id="mask52_1261_2190" style="mask-type:luminance" maskUnits="userSpaceOnUse" x="58" y="21" width="17" height="23">
<path d="M72.7753 21.5531H70.3796C70.2989 21.5531 70.22 21.5549 70.1415 21.5558L69.911 21.5589L69.4565 21.5811L69.2446 22.0333C66.8697 27.088 64.3761 31.475 61.8434 34.9601C60.6529 38.6238 59.7794 40.8483 58.7078 42.1564C59.1662 42.9376 59.6983 43.4865 60.3323 43.7202C60.3514 43.7149 60.366 43.7122 60.382 43.7087C60.3864 43.706 60.3891 43.706 60.3931 43.706C60.4037 43.7042 60.4153 43.6998 60.4272 43.6989C60.4538 43.6927 60.4813 43.687 60.5071 43.6781L60.5549 43.6648L60.6259 43.6471C60.6401 43.6408 60.6547 43.6382 60.6702 43.6337C60.7075 43.6222 60.7412 43.6142 60.7766 43.6027C60.7926 43.5952 60.8099 43.5894 60.8285 43.585C60.8485 43.5774 60.8693 43.5717 60.8875 43.5628C60.9088 43.5562 60.9296 43.5517 60.9487 43.5437C60.9657 43.5387 60.9823 43.5323 60.9983 43.5247C61.0396 43.5105 61.0804 43.4981 61.1225 43.4812C61.1331 43.4777 61.1446 43.4715 61.1557 43.4688C61.181 43.4586 61.2072 43.4511 61.2311 43.4391C61.2409 43.4356 61.2519 43.4302 61.2635 43.4271L61.5295 43.3136C61.5304 43.3136 61.5348 43.3118 61.5384 43.3101C61.6684 43.2521 61.7967 43.1904 61.9232 43.1252C66.0406 40.8248 68.1192 33.0974 74.5821 21.5531H72.7753Z" fill="white"/>
</mask>
<g mask="url(#mask52_1261_2190)">
<mask id="mask53_1261_2190" style="mask-type:luminance" maskUnits="userSpaceOnUse" x="58" y="21" width="17" height="23">
<path d="M74.5683 43.7166H58.6948V21.5504H74.5683V43.7166Z" fill="white"/>
</mask>
<g mask="url(#mask53_1261_2190)">
<mask id="mask54_1261_2190" style="mask-type:luminance" maskUnits="userSpaceOnUse" x="58" y="21" width="17" height="23">
<path d="M74.5683 21.5504V43.7166H58.6948V21.5504H74.5683Z" fill="white"/>
</mask>
<g mask="url(#mask54_1261_2190)">
<path d="M74.5683 43.7166H58.6948V21.5504H74.5683V43.7166Z" fill="url(#paint12_linear_1261_2190)"/>
</g>
</g>
</g>
<mask id="mask55_1261_2190" style="mask-type:luminance" maskUnits="userSpaceOnUse" x="31" y="21" width="15" height="4">
<mask id="mask56_1261_2190" style="mask-type:luminance" maskUnits="userSpaceOnUse" x="31" y="21" width="15" height="4">
<path d="M31.5034 21.1974H45.1315V24.3389H31.5034V21.1974Z" fill="white"/>
</mask>
<g mask="url(#mask56_1261_2190)">
<mask id="mask57_1261_2190" style="mask-type:luminance" maskUnits="userSpaceOnUse" x="31" y="20" width="15" height="5">
<path d="M31.0601 20.754H45.5701V24.78H31.0601V20.754Z" fill="white"/>
</mask>
<g mask="url(#mask57_1261_2190)">
<mask id="mask58_1261_2190" style="mask-type:luminance" maskUnits="userSpaceOnUse" x="31" y="21" width="15" height="4">
<path d="M31.5056 24.3389H45.1311V21.1987H31.5056V24.3389Z" fill="white"/>
</mask>
<g mask="url(#mask58_1261_2190)">
<mask id="mask59_1261_2190" style="mask-type:luminance" maskUnits="userSpaceOnUse" x="31" y="21" width="15" height="4">
<path d="M31.5032 21.1974H45.1313V24.3389H31.5032V21.1974Z" fill="white"/>
</mask>
<g mask="url(#mask59_1261_2190)">
<mask id="mask60_1261_2190" style="mask-type:luminance" maskUnits="userSpaceOnUse" x="31" y="21" width="15" height="4">
<path d="M31.5056 24.3389H45.1311V21.1987H31.5056V24.3389Z" fill="white"/>
</mask>
<g mask="url(#mask60_1261_2190)">
<mask id="mask61_1261_2190" style="mask-type:luminance" maskUnits="userSpaceOnUse" x="31" y="21" width="15" height="4">
<path d="M45.1316 24.3389H31.5088V21.1987H45.132L45.1316 24.3389Z" fill="white"/>
</mask>
<g mask="url(#mask61_1261_2190)">
<mask id="mask62_1261_2190" style="mask-type:luminance" maskUnits="userSpaceOnUse" x="31" y="21" width="15" height="4">
<path d="M31.5029 21.1974H45.1262V24.3367H31.5029V21.1974Z" fill="white"/>
</mask>
<g mask="url(#mask62_1261_2190)">
<mask id="mask63_1261_2190" style="mask-type:luminance" maskUnits="userSpaceOnUse" x="31" y="21" width="15" height="4">
<path d="M31.5029 24.3379V21.1986H45.1262V24.3379H31.5029Z" fill="white"/>
</mask>
<g mask="url(#mask63_1261_2190)">
<path d="M31.5029 21.1974H45.1262V24.3367H31.5029V21.1974Z" fill="url(#paint13_linear_1261_2190)"/>
</g>
</g>
</g>
</g>
</g>
</g>
</g>
</g>
</mask>
<g mask="url(#mask55_1261_2190)">
<mask id="mask64_1261_2190" style="mask-type:luminance" maskUnits="userSpaceOnUse" x="36" y="19" width="11" height="7">
<path d="M36.1953 19.4425H46.9813V25.9702H36.1953V19.4425Z" fill="white"/>
</mask>
<g mask="url(#mask64_1261_2190)">
<mask id="mask65_1261_2190" style="mask-type:luminance" maskUnits="userSpaceOnUse" x="36" y="22" width="11" height="3">
<path d="M36.5437 24.1426H46.3538V22.0347H36.5437V24.1426Z" fill="white"/>
</mask>
<g mask="url(#mask65_1261_2190)">
<path d="M37.0376 22.0604L37.0673 22.0639C37.0925 22.0645 37.1175 22.0671 37.1422 22.0719C37.1511 22.0719 37.1591 22.0737 37.1666 22.0746L37.2996 22.0923C37.3076 22.0941 37.3152 22.0941 37.3218 22.0967L37.4371 22.1158C37.4464 22.1184 37.4559 22.1202 37.4655 22.1211L37.7315 22.1797L37.7559 22.1854L37.8632 22.2156C37.8738 22.2187 37.8823 22.22 37.892 22.2245L38.0193 22.2599C38.021 22.2621 38.0237 22.2621 38.0281 22.2644L38.139 22.302L38.1815 22.3167L38.2614 22.349C38.276 22.3526 38.2911 22.3588 38.3066 22.3641L38.4121 22.4085L38.4631 22.4306L38.5274 22.4572C38.5451 22.4674 38.566 22.4759 38.5833 22.4838L38.64 22.5127C39.0985 22.7344 39.5206 23.0376 39.9112 23.4021C40.0544 23.2505 40.2061 23.1148 40.3613 22.9924C39.5073 22.3872 38.5434 22.0418 37.4225 22.0418C37.2924 22.0413 37.1623 22.0468 37.0327 22.0582" fill="#7DCBEC"/>
<path d="M39.9197 23.4044C40.165 23.6344 40.3941 23.8812 40.6052 24.1431L41.2317 23.7263C40.9654 23.4587 40.6771 23.2141 40.3697 22.9951C40.2101 23.1207 40.0597 23.2577 39.9197 23.4048" fill="#5EC5ED"/>
<mask id="mask66_1261_2190" style="mask-type:luminance" maskUnits="userSpaceOnUse" x="36" y="22" width="8" height="1">
<path d="M37.0375 22.0604L37.4277 22.044C38.5442 22.044 39.5126 22.3898 40.3665 22.9946C41.2688 22.2839 42.3583 22.0351 43.8724 22.0351H36.5498C36.7158 22.0356 36.8817 22.0441 37.0468 22.0604" fill="white"/>
</mask>
<g mask="url(#mask66_1261_2190)">
<mask id="mask67_1261_2190" style="mask-type:luminance" maskUnits="userSpaceOnUse" x="36" y="19" width="9" height="7">
<path d="M37.6161 19.4425L44.2112 22.1783L42.7954 25.5916L36.2 22.8558L37.6161 19.4417V19.4425Z" fill="white"/>
</mask>
<g mask="url(#mask67_1261_2190)">
<mask id="mask68_1261_2190" style="mask-type:luminance" maskUnits="userSpaceOnUse" x="36" y="19" width="9" height="7">
<path d="M37.6162 19.4426L44.2117 22.1784L42.7959 25.5925L36.2004 22.8568L37.6162 19.4426Z" fill="white"/>
</mask>
<g mask="url(#mask68_1261_2190)">
<path d="M37.6161 19.4425L44.2112 22.1783L42.7954 25.5916L36.2 22.8558L37.6161 19.4417V19.4425Z" fill="url(#paint14_linear_1261_2190)"/>
</g>
</g>
</g>
<mask id="mask69_1261_2190" style="mask-type:luminance" maskUnits="userSpaceOnUse" x="40" y="22" width="7" height="2">
<path d="M43.876 22.0352C42.3618 22.0352 41.2724 22.2835 40.3701 22.9947C40.6775 23.2137 40.9658 23.4583 41.2321 23.7258C42.4869 22.9277 43.7297 22.3992 44.9557 22.1686C45.4239 22.08 45.8904 22.0356 46.3502 22.0356L43.876 22.0352Z" fill="white"/>
</mask>
<g mask="url(#mask69_1261_2190)">
<mask id="mask70_1261_2190" style="mask-type:luminance" maskUnits="userSpaceOnUse" x="39" y="19" width="8" height="7">
<path d="M39.7351 22.3193L45.3307 19.7831L46.9859 23.434L41.3903 25.9702L39.7351 22.3193Z" fill="white"/>
</mask>
<g mask="url(#mask70_1261_2190)">
<mask id="mask71_1261_2190" style="mask-type:luminance" maskUnits="userSpaceOnUse" x="39" y="19" width="8" height="7">
<path d="M39.7351 22.3193L45.3307 19.7831L46.9859 23.434L41.3903 25.9702L39.7351 22.3193Z" fill="white"/>
</mask>
<g mask="url(#mask71_1261_2190)">
<path d="M39.7351 22.3193L45.3307 19.7831L46.9859 23.434L41.3903 25.9702L39.7351 22.3193Z" fill="url(#paint15_linear_1261_2190)"/>
</g>
</g>
</g>
</g>
</g>
</g>
<mask id="mask72_1261_2190" style="mask-type:luminance" maskUnits="userSpaceOnUse" x="46" y="23" width="34" height="18">
<mask id="mask73_1261_2190" style="mask-type:luminance" maskUnits="userSpaceOnUse" x="46" y="23" width="34" height="18">
<path d="M46.9233 23.318H79.0232V40.9385H46.9233V23.3171V23.318Z" fill="white"/>
</mask>
<g mask="url(#mask73_1261_2190)">
<mask id="mask74_1261_2190" style="mask-type:luminance" maskUnits="userSpaceOnUse" x="46" y="22" width="34" height="20">
<path d="M46.4822 22.8834H79.4644V41.3818H46.4822V22.8834Z" fill="white"/>
</mask>
<g mask="url(#mask74_1261_2190)">
<mask id="mask75_1261_2190" style="mask-type:luminance" maskUnits="userSpaceOnUse" x="46" y="23" width="34" height="18">
<path d="M46.9233 40.9297H79.0232V23.3172H46.9233V40.9297Z" fill="white"/>
</mask>
<g mask="url(#mask75_1261_2190)">
<mask id="mask76_1261_2190" style="mask-type:luminance" maskUnits="userSpaceOnUse" x="46" y="23" width="34" height="18">
<path d="M46.9233 23.318H79.0232V40.9385H46.9233V23.3171V23.318Z" fill="white"/>
</mask>
<g mask="url(#mask76_1261_2190)">
<mask id="mask77_1261_2190" style="mask-type:luminance" maskUnits="userSpaceOnUse" x="46" y="23" width="34" height="18">
<path d="M46.9233 40.9297H79.0232V23.3172H46.9233V40.9297Z" fill="white"/>
</mask>
<g mask="url(#mask77_1261_2190)">
<mask id="mask78_1261_2190" style="mask-type:luminance" maskUnits="userSpaceOnUse" x="46" y="23" width="34" height="18">
<path d="M79.0217 40.9297H46.9258V23.3172H79.0212V40.9297H79.0217Z" fill="white"/>
</mask>
<g mask="url(#mask78_1261_2190)">
<mask id="mask79_1261_2190" style="mask-type:luminance" maskUnits="userSpaceOnUse" x="46" y="23" width="34" height="18">
<path d="M46.9255 23.3268H79.021V40.9385H46.9255V23.3268Z" fill="white"/>
</mask>
<g mask="url(#mask79_1261_2190)">
<mask id="mask80_1261_2190" style="mask-type:luminance" maskUnits="userSpaceOnUse" x="46" y="23" width="34" height="18">
<path d="M46.9255 40.9385V23.3268H79.021V40.9385H46.9255Z" fill="white"/>
</mask>
<g mask="url(#mask80_1261_2190)">
<path d="M46.9255 23.3268H79.021V40.9385H46.9255V23.3268Z" fill="url(#paint16_linear_1261_2190)"/>
</g>
</g>
</g>
</g>
</g>
</g>
</g>
</g>
</mask>
<g mask="url(#mask72_1261_2190)">
<mask id="mask81_1261_2190" style="mask-type:luminance" maskUnits="userSpaceOnUse" x="57" y="21" width="13" height="19">
<path d="M57.7063 21.5731H69.4753V39.7944H57.7063V21.5731Z" fill="white"/>
</mask>
<g mask="url(#mask81_1261_2190)">
<mask id="mask82_1261_2190" style="mask-type:luminance" maskUnits="userSpaceOnUse" x="57" y="21" width="13" height="19">
<path d="M57.7073 39.7944H69.4572V21.5807H57.7073V39.7944Z" fill="white"/>
</mask>
<g mask="url(#mask82_1261_2190)">
<mask id="mask83_1261_2190" style="mask-type:luminance" maskUnits="userSpaceOnUse" x="57" y="21" width="13" height="19">
<path d="M61.8473 34.9615L64.1698 27.559C65.0016 24.8986 66.4772 22.9034 69.2484 22.0334L69.4612 21.5811C64.9453 21.8472 62.8343 24.1493 61.7715 27.551C59.9092 33.4912 58.7892 37.3412 57.7056 39.7949C59.089 38.4714 60.4723 36.8477 61.8469 34.9619" fill="white"/>
</mask>
<g mask="url(#mask83_1261_2190)">
<mask id="mask84_1261_2190" style="mask-type:luminance" maskUnits="userSpaceOnUse" x="57" y="21" width="13" height="19">
<path d="M69.4752 39.7864H57.7195V21.573H69.4752V39.7864Z" fill="white"/>
</mask>
<g mask="url(#mask84_1261_2190)">
<mask id="mask85_1261_2190" style="mask-type:luminance" maskUnits="userSpaceOnUse" x="57" y="21" width="13" height="19">
<path d="M69.4752 21.573V39.7864H57.7195V21.573H69.4752Z" fill="white"/>
</mask>
<g mask="url(#mask85_1261_2190)">
<path d="M69.4752 39.7864H57.7195V21.573H69.4752V39.7864Z" fill="url(#paint17_linear_1261_2190)"/>
</g>
</g>
</g>
</g>
</g>
</g>
<path d="M70.3065 42.0744L69.7499 43.3114L69.6638 43.531H69.6555C69.6343 43.4575 69.6074 43.3858 69.575 43.3165L69.0293 42.0744H68.7548V43.8616H68.954V42.6693L68.945 42.3201H68.9495C68.9687 42.405 68.9865 42.4669 69.0038 42.5039L69.6114 43.861H69.7136L70.3199 42.4937C70.343 42.4372 70.3615 42.3789 70.3755 42.3195H70.3793L70.3633 42.6654V43.861H70.5708V42.0737H70.3155L70.3065 42.0744ZM67.7533 43.8616H67.9627V42.271H68.4746V42.0814H67.2402V42.271H67.7533V43.8616ZM57.2233 59.7846H62.5072V76.1531H64.6519V59.7846H69.9255V57.8442H57.2233V59.7846ZM47.6489 67.8144H54.2616V65.8739H47.6489V59.7846H54.787V57.8442H45.4997V76.1531H55.2019V74.2127H47.6495V67.815L47.6489 67.8144ZM39.3178 70.7378L39.4468 73.4295H39.3957C39.268 73.1844 39.0127 72.7759 38.6553 72.2052L29.4893 57.8435H26.7044V76.1531H28.8504V62.925L28.7482 60.4101H28.8261C28.987 60.8269 29.1772 61.2093 29.3987 61.5591L38.8474 76.1531H41.4516V57.8448H39.3197V70.7403L39.3178 70.7378ZM22.138 73.5616C21.7474 73.5616 21.4155 73.7008 21.1423 73.9829C20.8691 74.265 20.7338 74.6033 20.7338 75.0042C20.7312 75.192 20.766 75.3784 20.8361 75.5526C20.9063 75.7268 21.0103 75.8854 21.1423 76.0191C21.4155 76.305 21.7474 76.4467 22.138 76.4467C22.5382 76.4467 22.8785 76.3037 23.1593 76.0191C23.4402 75.7344 23.5806 75.3954 23.5806 74.9978C23.5806 74.6001 23.4402 74.2669 23.1593 73.9765C23.0276 73.8388 22.869 73.7298 22.6933 73.6562C22.5175 73.5826 22.3285 73.5461 22.138 73.5488M64.6723 54.1701C64.6723 55.1505 65.1063 55.6414 65.9782 55.6414C66.2885 55.6414 66.5387 55.5884 66.7276 55.4799V54.7988C66.5775 54.9077 66.3959 54.9644 66.2106 54.9603C65.9444 54.9603 65.7561 54.8965 65.6406 54.7465C65.5257 54.608 65.4714 54.368 65.4714 54.0335V51.2339H66.727V50.5573H65.4785V49.0816L64.6793 49.3401V50.5573H63.824V51.2339H64.6793V54.1842L64.6723 54.1701ZM61.4119 55.5297H62.2097V51.2339H63.3791V50.5573H62.211V49.7888C62.211 49.0842 62.4893 48.7325 63.0408 48.7325C63.226 48.7297 63.4087 48.775 63.5712 48.8639V48.1427C63.4308 48.0788 63.2393 48.0565 62.9923 48.0565C62.5665 48.0565 62.2085 48.1842 61.9155 48.4605C61.5733 48.7708 61.4048 49.201 61.4048 49.7499V50.558H60.5636V51.2346H61.4112V55.545L61.4119 55.5297ZM55.9697 53.0646C55.9697 52.4282 56.1261 51.938 56.4395 51.5965C56.7395 51.2722 57.1372 51.1095 57.6331 51.1095C58.1355 51.1095 58.528 51.269 58.8076 51.5908C59.0961 51.9252 59.2404 52.4122 59.2404 53.0512C59.2404 53.6608 59.1127 54.1363 58.8357 54.4637C58.5612 54.8039 58.1591 54.9744 57.6344 54.9744C57.1282 54.9744 56.7242 54.8065 56.4204 54.4637C56.1204 54.1293 55.971 53.6608 55.971 53.0639M59.3872 54.9278C59.834 54.449 60.0612 53.8108 60.0612 53.0161C60.0612 52.208 59.8506 51.5735 59.4344 51.1108C59.0182 50.648 58.4368 50.4201 57.6938 50.4201C56.9368 50.4201 56.3323 50.6416 55.8823 51.0814C55.3972 51.5563 55.1527 52.2259 55.1527 53.092C55.1527 53.858 55.3672 54.4644 55.7955 54.9265C56.2327 55.4065 56.8282 55.6478 57.5776 55.6478C58.3436 55.6478 58.9404 55.4078 59.3878 54.9265M53.8985 55.2086C54.0456 55.0841 54.163 54.9283 54.2423 54.7526C54.3216 54.577 54.3607 54.3858 54.3568 54.1931C54.3568 53.8229 54.2342 53.5165 53.9904 53.2778C53.8033 53.0882 53.4957 52.9031 53.0712 52.7256C52.6921 52.5642 52.4406 52.4256 52.3225 52.3108C52.1897 52.1882 52.1221 52.0171 52.1221 51.7963C52.1221 51.592 52.2025 51.4248 52.3621 51.2933C52.5216 51.1618 52.7323 51.0999 52.9972 51.0999C53.4236 51.0999 53.8002 51.218 54.1282 51.4554V50.6512C53.8136 50.4954 53.4593 50.4182 53.0623 50.4182C52.5516 50.4182 52.124 50.5548 51.7959 50.8312C51.4678 51.1076 51.3044 51.4503 51.3044 51.8633C51.3044 52.2335 51.4097 52.5335 51.621 52.7646C51.7959 52.9593 52.0933 53.1476 52.5114 53.3301C52.9168 53.5088 53.1899 53.6608 53.3297 53.7878C53.4695 53.9148 53.5404 54.075 53.5404 54.2691C53.5404 54.7331 53.2238 54.9661 52.5912 54.9661C52.1176 54.9661 51.6868 54.8065 51.2955 54.4886V55.3465C51.6465 55.5476 52.0602 55.6465 52.5338 55.6465C53.1095 55.6465 53.5678 55.4997 53.901 55.2086M46.784 51.5876C47.0814 51.2633 47.4861 51.1005 47.9757 51.1005C48.4787 51.1005 48.8693 51.2601 49.1502 51.5818C49.4374 51.9163 49.5823 52.4033 49.5823 53.0422C49.5823 53.6518 49.4546 54.1273 49.1776 54.4548C48.9031 54.795 48.501 54.9654 47.9763 54.9654C47.4689 54.9654 47.0648 54.7976 46.7648 54.4548C46.4648 54.112 46.318 53.6518 46.318 53.055C46.318 52.4186 46.4757 51.9284 46.7904 51.5869M47.9233 55.6465C48.6893 55.6465 49.2861 55.4065 49.7361 54.9252C50.1861 54.4439 50.4063 53.8082 50.4063 53.0135C50.4063 52.2054 50.197 51.571 49.7821 51.1082C49.3633 50.6486 48.7825 50.4176 48.0395 50.4176C47.2838 50.4176 46.6812 50.6391 46.2293 51.0788C45.7416 51.5537 45.4985 52.2233 45.4985 53.0895C45.4985 53.8554 45.7136 54.4618 46.1412 54.9239C46.5791 55.4039 47.1753 55.6452 47.9285 55.6452M43.9033 50.7303C43.6608 50.9218 43.4802 51.209 43.3633 51.5729H43.3442V50.5388H42.5463V55.5259H43.3442V53.002C43.3442 52.4231 43.4687 51.9718 43.7195 51.6437C43.9404 51.352 44.2129 51.2065 44.5365 51.2065C44.8027 51.2065 45.005 51.2588 45.1461 51.3661V50.5318C45.0376 50.4871 44.8799 50.4642 44.6674 50.4642C44.3846 50.4642 44.1293 50.5548 43.9027 50.7367M39.9708 55.6516C40.4974 55.6516 40.9538 55.5354 41.3368 55.3005V54.5531C40.9538 54.8391 40.5465 54.982 40.1099 54.982C39.5993 54.982 39.1844 54.8135 38.8768 54.4759C38.5691 54.1382 38.4159 53.678 38.4159 53.0971C38.4159 52.4933 38.5857 52.0088 38.9189 51.6469C39.238 51.2933 39.6529 51.1159 40.1597 51.1159C40.5872 51.1173 41.0033 51.254 41.3482 51.5065V50.6869C41.0125 50.5191 40.6282 50.4335 40.1942 50.4335C39.4027 50.4335 38.7721 50.685 38.3036 51.188C37.835 51.691 37.5989 52.3516 37.5989 53.168C37.5989 53.8956 37.8133 54.4905 38.241 54.9508C38.6878 55.425 39.2623 55.6618 39.9644 55.6618M35.5576 55.5418H36.3542V50.5567H35.555V55.5437L35.5576 55.5418ZM35.9661 49.2897C36.0351 49.2911 36.1037 49.2784 36.1676 49.2523C36.2315 49.2262 36.2894 49.1872 36.3376 49.1378C36.3873 49.0901 36.4266 49.0327 36.453 48.9691C36.4793 48.9054 36.4922 48.837 36.4908 48.7682C36.4922 48.6997 36.4794 48.6317 36.453 48.5685C36.4266 48.5053 36.3873 48.4483 36.3376 48.4012C36.2888 48.3528 36.2308 48.3147 36.167 48.2893C36.1031 48.2638 36.0348 48.2515 35.9661 48.2531C35.8231 48.2531 35.6999 48.3016 35.5978 48.4012C35.5487 48.4487 35.5098 48.5057 35.4837 48.5689C35.4575 48.632 35.4447 48.6999 35.4459 48.7682C35.4459 48.9214 35.497 49.0459 35.5978 49.1435C35.6466 49.1909 35.7042 49.2282 35.7674 49.2533C35.8306 49.2784 35.8981 49.2907 35.9661 49.2897ZM27.4997 50.8637L27.4614 49.501H27.4793C27.5431 49.8284 27.6197 50.0678 27.6874 50.2171L30.0733 55.5437H30.4729L32.8614 50.1782C32.9227 50.0378 32.9929 49.8131 33.0695 49.5016H33.0887L33.0197 50.8548V55.5444H33.8387V48.5614H32.8129L30.6191 53.4042C30.5342 53.5918 30.4244 53.8784 30.2846 54.2595H30.2502C30.1991 54.0693 30.0951 53.7903 29.9336 53.4297L27.7908 48.5595H26.7102V55.5425H27.4997V50.8637ZM69.4614 51.6763C69.2329 51.9035 68.9559 52.0146 68.6316 52.0146C68.3074 52.0146 68.0285 51.9035 67.8019 51.6801C67.5753 51.4567 67.4572 51.1733 67.4572 50.8376C67.4572 50.5069 67.5682 50.2286 67.791 50.0033C68.0138 49.778 68.294 49.6669 68.6316 49.6669C68.7856 49.6638 68.9385 49.6918 69.0813 49.7493C69.2241 49.8068 69.3539 49.8925 69.4627 50.0014C69.5739 50.11 69.6615 50.2403 69.7201 50.3843C69.7786 50.5283 69.8068 50.6828 69.8029 50.8382C69.8029 51.1727 69.688 51.4548 69.4608 51.6769M68.6361 49.5208C68.4596 49.5162 68.284 49.5477 68.1201 49.6135C67.9563 49.6792 67.8075 49.7778 67.6831 49.9031C67.5587 50.0251 67.4606 50.1713 67.3949 50.3327C67.3291 50.4941 67.2971 50.6672 67.3008 50.8414C67.3008 51.2199 67.4253 51.532 67.6838 51.7797C67.9423 52.0273 68.2582 52.1499 68.6316 52.1499C68.8077 52.1541 68.9827 52.1225 69.1462 52.0571C69.3096 51.9917 69.4581 51.8939 69.5827 51.7695C69.8406 51.5167 69.9689 51.2039 69.9689 50.8299C69.9689 50.4495 69.8399 50.1278 69.5859 49.8852C69.4618 49.7652 69.315 49.671 69.1541 49.6082C68.9933 49.5454 68.8215 49.5153 68.6489 49.5195M68.6061 50.7533H68.3527V50.1776H68.5633C68.7102 50.1776 68.8136 50.2031 68.8748 50.2516C68.9291 50.2976 68.9559 50.3665 68.9559 50.4622C68.9559 50.6556 68.841 50.752 68.6068 50.752M68.781 50.902V50.8956C68.9163 50.8669 69.0236 50.8127 69.097 50.7297C69.1724 50.6501 69.2133 50.5438 69.2106 50.4342C69.2123 50.3742 69.2008 50.3145 69.1769 50.2594C69.1529 50.2044 69.1171 50.1553 69.0721 50.1156C68.9623 50.0199 68.804 49.9739 68.5921 49.9739H68.1165V51.6642H68.354V50.962H68.5091C68.6176 50.962 68.7185 51.0629 68.8116 51.2665L68.9955 51.6712H69.284L69.0619 51.2218C68.9699 51.0303 68.8704 50.932 68.7823 50.9027" fill="#231F20"/>
</g>
<defs>
<filter id="filter0_d_1261_2190" x="0" y="0" width="98" height="98" filterUnits="userSpaceOnUse" color-interpolation-filters="sRGB">
<feFlood flood-opacity="0" result="BackgroundImageFix"/>
<feColorMatrix in="SourceAlpha" type="matrix" values="0 0 0 0 0 0 0 0 0 0 0 0 0 0 0 0 0 0 127 0" result="hardAlpha"/>
<feOffset/>
<feGaussianBlur stdDeviation="2"/>
<feComposite in2="hardAlpha" operator="out"/>
<feColorMatrix type="matrix" values="0 0 0 0 0 0 0 0 0 0 0 0 0 0 0 0 0 0 0.25 0"/>
<feBlend mode="normal" in2="BackgroundImageFix" result="effect1_dropShadow_1261_2190"/>
<feBlend mode="normal" in="SourceGraphic" in2="effect1_dropShadow_1261_2190" result="shape"/>
</filter>
<linearGradient id="paint0_linear_1261_2190" x1="1761.71" y1="-5248.8" x2="1761.71" y2="-4113.53" gradientUnits="userSpaceOnUse">
<stop stop-color="#0994DC"/>
<stop offset="0.11" stop-color="#0994DC"/>
<stop offset="0.35" stop-color="#66CEF5"/>
<stop offset="0.45" stop-color="#66CEF5"/>
<stop offset="0.846" stop-color="#127BCA"/>
<stop offset="1" stop-color="#127BCA"/>
</linearGradient>
<linearGradient id="paint1_linear_1261_2190" x1="1873.6" y1="-5413.94" x2="1873.6" y2="-4219.78" gradientUnits="userSpaceOnUse">
<stop stop-color="#0E76BC"/>
<stop offset="0.176" stop-color="#0E76BC"/>
<stop offset="0.36" stop-color="#36AEE8"/>
<stop offset="0.52" stop-color="#36AEE8"/>
<stop offset="0.846" stop-color="#00ADEF"/>
<stop offset="1" stop-color="#00ADEF"/>
</linearGradient>
<linearGradient id="paint2_linear_1261_2190" x1="1865.45" y1="-5748.61" x2="1865.45" y2="-4461.66" gradientUnits="userSpaceOnUse">
<stop stop-color="#166AB8"/>
<stop offset="0.099" stop-color="#166AB8"/>
<stop offset="0.4" stop-color="#36AEE8"/>
<stop offset="0.516" stop-color="#36AEE8"/>
<stop offset="0.846" stop-color="#0798DD"/>
<stop offset="1" stop-color="#0798DD"/>
</linearGradient>
<linearGradient id="paint3_linear_1261_2190" x1="2330.56" y1="-6106.05" x2="2330.56" y2="-4651.16" gradientUnits="userSpaceOnUse">
<stop stop-color="#124379"/>
<stop offset="0.11" stop-color="#124379"/>
<stop offset="0.39" stop-color="#1487CB"/>
<stop offset="0.52" stop-color="#1487CB"/>
<stop offset="0.78" stop-color="#165197"/>
<stop offset="1" stop-color="#165197"/>
</linearGradient>
<linearGradient id="paint4_linear_1261_2190" x1="1472.54" y1="-3962.68" x2="1472.54" y2="-4801.31" gradientUnits="userSpaceOnUse">
<stop stop-color="#318ED5"/>
<stop offset="0.675" stop-color="#38A7E4"/>
<stop offset="1" stop-color="#38A7E4"/>
</linearGradient>
<linearGradient id="paint5_linear_1261_2190" x1="6662.69" y1="-13324.4" x2="4325.33" y2="-9198.95" gradientUnits="userSpaceOnUse">
<stop stop-color="#231F20"/>
<stop offset="0.129" stop-color="white"/>
<stop offset="0.4" stop-color="white"/>
<stop offset="1" stop-color="white"/>
</linearGradient>
<linearGradient id="paint6_linear_1261_2190" x1="1405.28" y1="-3050.79" x2="1405.28" y2="-3681.62" gradientUnits="userSpaceOnUse">
<stop stop-color="#05A1E6"/>
<stop offset="1" stop-color="#05A1E6"/>
</linearGradient>
<linearGradient id="paint7_linear_1261_2190" x1="1646.8" y1="-4301.22" x2="1646.8" y2="-5057.72" gradientUnits="userSpaceOnUse">
<stop stop-color="#1959A6"/>
<stop offset="0.154" stop-color="#1959A6"/>
<stop offset="0.484" stop-color="#05A1E6"/>
<stop offset="0.5" stop-color="#05A1E6"/>
<stop offset="0.918" stop-color="#7EC5EA"/>
<stop offset="1" stop-color="#7EC5EA"/>
</linearGradient>
<linearGradient id="paint8_linear_1261_2190" x1="3341.29" y1="-6668.23" x2="3087" y2="-7908.5" gradientUnits="userSpaceOnUse">
<stop stop-color="#165096"/>
<stop offset="0.104" stop-color="#165096"/>
<stop offset="1" stop-color="#0D82CA"/>
</linearGradient>
<linearGradient id="paint9_linear_1261_2190" x1="1626.49" y1="-3394.47" x2="1626.49" y2="-3697.05" gradientUnits="userSpaceOnUse">
<stop stop-color="#05A1E6"/>
<stop offset="0.649" stop-color="#05A1E6"/>
<stop offset="0.874" stop-color="#0495D6"/>
<stop offset="1" stop-color="#0495D6"/>
</linearGradient>
<linearGradient id="paint10_linear_1261_2190" x1="7188.04" y1="-3247.51" x2="7188.04" y2="-2965.41" gradientUnits="userSpaceOnUse">
<stop stop-color="#231F20"/>
<stop offset="1" stop-color="white"/>
</linearGradient>
<linearGradient id="paint11_linear_1261_2190" x1="4739.8" y1="-7637.92" x2="4429.79" y2="-6236.45" gradientUnits="userSpaceOnUse">
<stop stop-color="#38A7E4"/>
<stop offset="0.357" stop-color="#38A7E4"/>
<stop offset="0.962" stop-color="#0E88D3"/>
<stop offset="1" stop-color="#0E88D3"/>
</linearGradient>
<linearGradient id="paint12_linear_1261_2190" x1="3453.14" y1="-6362.18" x2="3453.14" y2="-5230.2" gradientUnits="userSpaceOnUse">
<stop stop-color="#168CD4"/>
<stop offset="0.5" stop-color="#1C87CC"/>
<stop offset="1" stop-color="#154B8D"/>
</linearGradient>
<linearGradient id="paint13_linear_1261_2190" x1="2074.72" y1="-862.687" x2="2074.72" y2="-884.919" gradientUnits="userSpaceOnUse">
<stop stop-color="white"/>
<stop offset="0.363" stop-color="white"/>
<stop offset="1" stop-color="#918F90"/>
</linearGradient>
<linearGradient id="paint14_linear_1261_2190" x1="1227.74" y1="-1758.08" x2="1313.24" y2="-1711.89" gradientUnits="userSpaceOnUse">
<stop stop-color="#97D6EE"/>
<stop offset="0.703" stop-color="#55C1EA"/>
<stop offset="1" stop-color="#55C1EA"/>
</linearGradient>
<linearGradient id="paint15_linear_1261_2190" x1="1167.58" y1="-1732.35" x2="1230.9" y2="-1765.99" gradientUnits="userSpaceOnUse">
<stop stop-color="#7ACCEC"/>
<stop offset="0.335" stop-color="#7ACCEC"/>
<stop offset="0.841" stop-color="#3FB7ED"/>
<stop offset="1" stop-color="#3FB7ED"/>
</linearGradient>
<linearGradient id="paint16_linear_1261_2190" x1="6645.56" y1="-4276.01" x2="6645.56" y2="-4975.58" gradientUnits="userSpaceOnUse">
<stop stop-color="#231F20"/>
<stop offset="1" stop-color="white"/>
</linearGradient>
<linearGradient id="paint17_linear_1261_2190" x1="2491.14" y1="-5172.54" x2="2491.14" y2="-4262.79" gradientUnits="userSpaceOnUse">
<stop stop-color="#1DA7E7"/>
<stop offset="1" stop-color="#37ABE7"/>
</linearGradient>
<clipPath id="clip0_1261_2190">
<rect width="60.6383" height="60" fill="white" transform="translate(18.1807 19)"/>
</clipPath>
</defs>
</svg>
