<svg width="98" height="98" viewBox="0 0 98 98" fill="none" xmlns="http://www.w3.org/2000/svg">
<g filter="url(#filter0_d_1261_1522)">
<rect x="4" y="4" width="90" height="90" rx="45" fill="white"/>
</g>
<g clip-path="url(#clip0_1261_1522)">
<path d="M36.2483 45.985C36.2483 46.6641 36.3226 47.2147 36.4526 47.6185C36.6013 48.0222 36.787 48.4627 37.0471 48.9399C37.14 49.0868 37.1772 49.2336 37.1772 49.3621C37.1772 49.5456 37.0657 49.7291 36.8242 49.9127L35.6538 50.6835C35.4866 50.7937 35.3194 50.8487 35.1708 50.8487C34.985 50.8487 34.7993 50.757 34.6135 50.5918C34.3534 50.3165 34.1305 50.0228 33.9447 49.7291C33.7589 49.4171 33.5732 49.0684 33.3688 48.6463C31.9198 50.3348 30.0992 51.1791 27.9071 51.1791C26.3466 51.1791 25.1019 50.7386 24.1916 49.8576C23.2813 48.9766 22.8169 47.802 22.8169 46.3337C22.8169 44.7736 23.3742 43.5072 24.5074 42.5528C25.6406 41.5984 27.1454 41.1212 29.0589 41.1212C29.6905 41.1212 30.3407 41.1763 31.0281 41.2681C31.7154 41.3598 32.4214 41.5067 33.1645 41.6719V40.332C33.1645 38.9372 32.8672 37.9644 32.2913 37.3954C31.6968 36.8265 30.6937 36.5512 29.2632 36.5512C28.613 36.5512 27.9442 36.6246 27.2569 36.7898C26.5695 36.9549 25.9007 37.1568 25.2505 37.4138C24.9533 37.5423 24.7304 37.6157 24.6003 37.6524C24.4703 37.6891 24.3774 37.7075 24.3031 37.7075C24.043 37.7075 23.913 37.5239 23.913 37.1385V36.2392C23.913 35.9455 23.9501 35.7253 24.043 35.5968C24.1359 35.4683 24.3031 35.3398 24.5632 35.2113C25.2134 34.881 25.9936 34.6057 26.9039 34.3854C27.8142 34.1468 28.7802 34.0367 29.802 34.0367C32.0127 34.0367 33.6289 34.5323 34.6692 35.5234C35.691 36.5145 36.2111 38.0195 36.2111 40.0384V45.985H36.2483ZM28.7059 48.7748C29.319 48.7748 29.9506 48.6646 30.6194 48.4444C31.2881 48.2241 31.8826 47.8204 32.3842 47.2697C32.6814 46.921 32.9044 46.5356 33.0158 46.0951C33.1273 45.6546 33.2016 45.1224 33.2016 44.4983V43.7275C32.6629 43.599 32.087 43.4889 31.4925 43.4155C30.898 43.342 30.3221 43.3053 29.7462 43.3053C28.5016 43.3053 27.5913 43.5439 26.9782 44.0395C26.3652 44.535 26.0679 45.2325 26.0679 46.1502C26.0679 47.0128 26.2909 47.6552 26.7553 48.0957C27.2011 48.5545 27.8513 48.7748 28.7059 48.7748ZM43.6235 50.757C43.2891 50.757 43.0662 50.7019 42.9175 50.5734C42.7689 50.4633 42.6389 50.2063 42.5274 49.8576L38.1618 35.6702C38.0503 35.3031 37.9946 35.0645 37.9946 34.936C37.9946 34.6424 38.1432 34.4772 38.4404 34.4772H40.261C40.614 34.4772 40.8555 34.5323 40.9855 34.6607C41.1341 34.7709 41.2456 35.0278 41.357 35.3765L44.478 47.5267L47.3761 35.3765C47.469 35.0095 47.5804 34.7709 47.7291 34.6607C47.8777 34.5506 48.1378 34.4772 48.4722 34.4772H49.9583C50.3113 34.4772 50.5528 34.5323 50.7014 34.6607C50.8501 34.7709 50.9801 35.0278 51.0544 35.3765L53.9896 47.6735L57.2035 35.3765C57.315 35.0095 57.445 34.7709 57.575 34.6607C57.7237 34.5506 57.9652 34.4772 58.2996 34.4772H60.0272C60.3245 34.4772 60.4917 34.624 60.4917 34.936C60.4917 35.0278 60.4731 35.1196 60.4545 35.2297C60.4359 35.3398 60.3988 35.4867 60.3245 35.6885L55.8473 49.876C55.7359 50.243 55.6058 50.4816 55.4572 50.5918C55.3086 50.7019 55.0671 50.7753 54.7513 50.7753H53.1536C52.8007 50.7753 52.5592 50.7202 52.4105 50.5918C52.2619 50.4633 52.1319 50.2247 52.0576 49.8576L49.1781 38.0195L46.3172 49.8393C46.2243 50.2063 46.1128 50.4449 45.9642 50.5734C45.8156 50.7019 45.5555 50.757 45.2211 50.757H43.6235ZM67.4953 51.2525C66.5293 51.2525 65.5633 51.1424 64.6344 50.9221C63.7056 50.7019 62.981 50.4633 62.498 50.188C62.2008 50.0228 61.9964 49.8393 61.9221 49.6741C61.8478 49.5089 61.8107 49.3254 61.8107 49.1602V48.2241C61.8107 47.8387 61.9593 47.6552 62.2379 47.6552C62.3494 47.6552 62.4609 47.6735 62.5723 47.7102C62.6838 47.7469 62.851 47.8204 63.0368 47.8938C63.6684 48.1691 64.3558 48.3893 65.0803 48.5362C65.8234 48.683 66.5479 48.7564 67.291 48.7564C68.4613 48.7564 69.3716 48.5545 70.0033 48.1507C70.6349 47.7469 70.9693 47.1596 70.9693 46.4071C70.9693 45.8932 70.8021 45.4711 70.4677 45.1224C70.1333 44.7736 69.5017 44.4616 68.5914 44.168L65.8977 43.342C64.5415 42.9199 63.5384 42.2959 62.9253 41.47C62.3123 40.6624 61.9964 39.7631 61.9964 38.8087C61.9964 38.0378 62.1636 37.3587 62.498 36.7714C62.8324 36.1841 63.2783 35.6702 63.8356 35.2664C64.3929 34.8443 65.0245 34.5323 65.7676 34.312C66.5107 34.0918 67.291 34 68.1084 34C68.5171 34 68.9444 34.0184 69.3531 34.0734C69.7803 34.1285 70.1705 34.2019 70.5606 34.2753C70.9321 34.3671 71.2851 34.4588 71.6195 34.569C71.9539 34.6791 72.214 34.7892 72.3997 34.8993C72.6598 35.0462 72.8456 35.193 72.9571 35.3582C73.0685 35.505 73.1242 35.7069 73.1242 35.9638V36.8265C73.1242 37.2119 72.9756 37.4138 72.697 37.4138C72.5484 37.4138 72.3068 37.3404 71.991 37.1935C70.9321 36.7164 69.7432 36.4778 68.4242 36.4778C67.3653 36.4778 66.5293 36.6429 65.9534 36.9917C65.3775 37.3404 65.0803 37.8726 65.0803 38.6251C65.0803 39.139 65.266 39.5795 65.6376 39.9283C66.0091 40.277 66.6965 40.6257 67.6811 40.9377L70.3191 41.7636C71.6566 42.1858 72.6227 42.7731 73.1986 43.5256C73.7744 44.2781 74.0531 45.1407 74.0531 46.0951C74.0531 46.8843 73.8859 47.6001 73.5701 48.2241C73.2357 48.8482 72.7899 49.3988 72.214 49.8393C71.6381 50.2981 70.9507 50.6285 70.1519 50.8671C69.3159 51.124 68.4428 51.2525 67.4953 51.2525Z" fill="#252F3E"/>
<path fill-rule="evenodd" clip-rule="evenodd" d="M71.0064 60.1724C64.8945 64.6324 56.0145 67 48.3792 67C37.6787 67 28.0371 63.0907 20.7548 56.5934C20.1789 56.0795 20.699 55.3821 21.3864 55.7859C29.2632 60.3009 38.9791 63.0356 49.0294 63.0356C55.8102 63.0356 63.2597 61.6407 70.1147 58.7775C71.1364 58.3187 72.0096 59.4383 71.0064 60.1724Z" fill="#FF9900"/>
<path fill-rule="evenodd" clip-rule="evenodd" d="M73.5516 57.3091C72.7714 56.318 68.3871 56.8319 66.3993 57.0705C65.8049 57.1439 65.712 56.63 66.2507 56.2446C69.7432 53.8219 75.4836 54.5194 76.1524 55.3269C76.8212 56.1528 75.9667 61.8241 72.697 64.5405C72.1955 64.9626 71.7124 64.7424 71.9354 64.1918C72.6785 62.3748 74.3318 58.2819 73.5516 57.3091Z" fill="#FF9900"/>
</g>
<defs>
<filter id="filter0_d_1261_1522" x="0" y="0" width="98" height="98" filterUnits="userSpaceOnUse" color-interpolation-filters="sRGB">
<feFlood flood-opacity="0" result="BackgroundImageFix"/>
<feColorMatrix in="SourceAlpha" type="matrix" values="0 0 0 0 0 0 0 0 0 0 0 0 0 0 0 0 0 0 127 0" result="hardAlpha"/>
<feOffset/>
<feGaussianBlur stdDeviation="2"/>
<feComposite in2="hardAlpha" operator="out"/>
<feColorMatrix type="matrix" values="0 0 0 0 0 0 0 0 0 0 0 0 0 0 0 0 0 0 0.25 0"/>
<feBlend mode="normal" in2="BackgroundImageFix" result="effect1_dropShadow_1261_1522"/>
<feBlend mode="normal" in="SourceGraphic" in2="effect1_dropShadow_1261_1522" result="shape"/>
</filter>
<clipPath id="clip0_1261_1522">
<rect width="57" height="33" fill="white" transform="translate(20 34)"/>
</clipPath>
</defs>
</svg>
