<svg width="62" height="62" viewBox="0 0 62 62" fill="none" xmlns="http://www.w3.org/2000/svg">
<g filter="url(#filter0_d_1261_2292)">
<rect x="4" y="4" width="54" height="54" rx="27" fill="white"/>
</g>
<path d="M25.6524 15.4003H35.2851L25.2854 45.0285C25.1826 45.3329 24.9869 45.5975 24.7259 45.7849C24.4649 45.9723 24.1517 46.0732 23.8303 46.0732H16.3337C16.0902 46.0733 15.8502 46.0153 15.6336 45.9042C15.417 45.7931 15.2299 45.632 15.0879 45.4342C14.9459 45.2365 14.853 45.0078 14.817 44.767C14.7809 44.5262 14.8027 44.2803 14.8805 44.0496L24.197 16.445C24.2997 16.1404 24.4954 15.8758 24.7565 15.6883C25.0176 15.5008 25.3309 15.4003 25.6524 15.4003Z" fill="url(#paint0_linear_1261_2292)"/>
<path d="M39.6505 35.2729H24.3752C24.2332 35.2728 24.0945 35.3154 23.977 35.3952C23.8596 35.4751 23.7689 35.5884 23.7168 35.7205C23.6647 35.8527 23.6536 35.9974 23.6849 36.1359C23.7162 36.2744 23.7886 36.4003 23.8925 36.4971L33.708 45.6586C33.9938 45.9252 34.37 46.0734 34.7609 46.0733H43.4103L39.6505 35.2729Z" fill="#0078D4"/>
<path d="M25.6524 15.4004C25.3274 15.3992 25.0106 15.5018 24.7481 15.6935C24.4857 15.8851 24.2914 16.1556 24.1936 16.4655L14.892 44.0246C14.8089 44.2561 14.7828 44.5042 14.8159 44.748C14.8491 44.9917 14.9404 45.2239 15.0822 45.4248C15.224 45.6258 15.4122 45.7897 15.6307 45.9026C15.8492 46.0154 16.0918 46.074 16.3377 46.0734H24.0279C24.3143 46.0222 24.582 45.8959 24.8036 45.7074C25.0253 45.5189 25.1929 45.275 25.2894 45.0005L27.1444 39.5338L33.7702 45.7138C34.0478 45.9434 34.3961 46.0704 34.7565 46.0734H43.3737L39.5943 35.273L28.5768 35.2756L35.3199 15.4004H25.6524Z" fill="url(#paint1_linear_1261_2292)"/>
<path d="M37.9563 16.4434C37.8538 16.1393 37.6583 15.8751 37.3976 15.6879C37.1369 15.5008 36.8241 15.4001 36.5032 15.4001H25.7676C26.0885 15.4002 26.4013 15.5008 26.662 15.688C26.9227 15.8751 27.1181 16.1394 27.2207 16.4434L36.5376 44.0491C36.6155 44.2798 36.6373 44.5258 36.6013 44.7666C36.5652 45.0075 36.4724 45.2363 36.3303 45.4341C36.1883 45.6319 36.0013 45.7931 35.7846 45.9043C35.568 46.0155 35.3279 46.0735 35.0844 46.0735H45.8204C46.0639 46.0734 46.3038 46.0154 46.5204 45.9042C46.7371 45.793 46.9241 45.6318 47.066 45.434C47.208 45.2361 47.3008 45.0074 47.3369 44.7666C47.3729 44.5257 47.351 44.2798 47.2732 44.0491L37.9563 16.4434Z" fill="url(#paint2_linear_1261_2292)"/>
<defs>
<filter id="filter0_d_1261_2292" x="0" y="0" width="62" height="62" filterUnits="userSpaceOnUse" color-interpolation-filters="sRGB">
<feFlood flood-opacity="0" result="BackgroundImageFix"/>
<feColorMatrix in="SourceAlpha" type="matrix" values="0 0 0 0 0 0 0 0 0 0 0 0 0 0 0 0 0 0 127 0" result="hardAlpha"/>
<feOffset/>
<feGaussianBlur stdDeviation="2"/>
<feComposite in2="hardAlpha" operator="out"/>
<feColorMatrix type="matrix" values="0 0 0 0 0 0 0 0 0 0 0 0 0 0 0 0 0 0 0.25 0"/>
<feBlend mode="normal" in2="BackgroundImageFix" result="effect1_dropShadow_1261_2292"/>
<feBlend mode="normal" in="SourceGraphic" in2="effect1_dropShadow_1261_2292" result="shape"/>
</filter>
<linearGradient id="paint0_linear_1261_2292" x1="29.1632" y1="17.6732" x2="19.1594" y2="47.2271" gradientUnits="userSpaceOnUse">
<stop stop-color="#114A8B"/>
<stop offset="1" stop-color="#0669BC"/>
</linearGradient>
<linearGradient id="paint1_linear_1261_2292" x1="32.2882" y1="31.4463" x2="29.9741" y2="32.2287" gradientUnits="userSpaceOnUse">
<stop stop-opacity="0.3"/>
<stop offset="0.071" stop-opacity="0.2"/>
<stop offset="0.321" stop-opacity="0.1"/>
<stop offset="0.623" stop-opacity="0.05"/>
<stop offset="1" stop-opacity="0"/>
</linearGradient>
<linearGradient id="paint2_linear_1261_2292" x1="31.0161" y1="16.8111" x2="41.9973" y2="46.0672" gradientUnits="userSpaceOnUse">
<stop stop-color="#3CCBF4"/>
<stop offset="1" stop-color="#2892DF"/>
</linearGradient>
</defs>
</svg>
