<svg width="58" height="58" viewBox="0 0 58 58" fill="none" xmlns="http://www.w3.org/2000/svg">
<g filter="url(#filter0_d_1261_2168)">
<rect x="4" y="4" width="50" height="50" rx="25" fill="white"/>
</g>
<path d="M43.5116 26.4276C43.4287 26.3593 42.6823 25.7998 41.079 25.7998C40.6643 25.7998 40.2358 25.8408 39.8212 25.909C39.5171 23.8211 37.7617 22.8112 37.6926 22.7567L37.2641 22.511L36.9877 22.9068C36.6421 23.439 36.3795 24.0394 36.2274 24.6535C35.9372 25.8408 36.1169 26.9598 36.725 27.915C35.9925 28.3244 34.8038 28.42 34.555 28.4336H14.9279C14.4165 28.4336 14.0018 28.843 14.0018 29.3479C13.9742 31.0401 14.2644 32.7322 14.8588 34.3289C15.536 36.0756 16.5451 37.3721 17.8443 38.1636C19.3094 39.0506 21.7006 39.5555 24.3959 39.5555C25.6122 39.5555 26.8285 39.4463 28.031 39.228C29.7035 38.9277 31.3068 38.3546 32.7858 37.5222C33.9978 36.8284 35.0899 35.9437 36.0201 34.902C37.582 33.1689 38.508 31.2311 39.1853 29.5117H39.4617C41.1618 29.5117 42.2123 28.843 42.7928 28.2698C43.1798 27.915 43.47 27.4784 43.6774 26.9871L43.8018 26.6323L43.5116 26.4276Z" fill="#0091E2"/>
<path d="M16.7523 27.874H19.3784C19.5029 27.874 19.6135 27.7785 19.6135 27.6421V25.3222C19.6135 25.1993 19.5167 25.0902 19.3784 25.0902H16.7523C16.6279 25.0902 16.5173 25.1857 16.5173 25.3222V27.6421C16.5311 27.7785 16.6279 27.8741 16.7523 27.8741V27.874ZM20.3736 27.874H22.9998C23.1242 27.874 23.2348 27.7785 23.2348 27.6421V25.3222C23.2348 25.1993 23.138 25.0902 22.9998 25.0902H20.3736C20.2492 25.0902 20.1386 25.1857 20.1386 25.3222V27.6421C20.1525 27.7785 20.2492 27.8741 20.3736 27.8741M24.064 27.8741H26.6902C26.8146 27.8741 26.9252 27.7785 26.9252 27.6421V25.3222C26.9252 25.1993 26.8284 25.0902 26.6902 25.0902H24.064C23.9396 25.0902 23.829 25.1857 23.829 25.3222V27.6421C23.829 27.7785 23.9258 27.8741 24.064 27.8741ZM27.6992 27.8741H30.3254C30.4497 27.8741 30.5603 27.7785 30.5603 27.6421V25.3222C30.5603 25.1993 30.4636 25.0902 30.3254 25.0902H27.6992C27.5748 25.0902 27.4642 25.1857 27.4642 25.3222V27.6421C27.4642 27.7785 27.5748 27.8741 27.6992 27.8741ZM20.3736 24.558H22.9998C23.1241 24.558 23.2347 24.4489 23.2347 24.326V22.0061C23.2347 21.8833 23.1379 21.7741 22.9998 21.7741H20.3736C20.2492 21.7741 20.1386 21.8696 20.1386 22.0061V24.326C20.1525 24.4488 20.2493 24.558 20.3736 24.558ZM24.064 24.558H26.6902C26.8146 24.558 26.9252 24.4489 26.9252 24.326V22.0061C26.9252 21.8833 26.8284 21.7741 26.6902 21.7741H24.064C23.9396 21.7741 23.829 21.8696 23.829 22.0061V24.326C23.829 24.4488 23.9258 24.558 24.064 24.558ZM27.6992 24.558H30.3254C30.4497 24.558 30.5603 24.4489 30.5603 24.326V22.0061C30.5603 21.8833 30.4497 21.7741 30.3254 21.7741H27.6992C27.5748 21.7741 27.4642 21.8696 27.4642 22.0061V24.326C27.4642 24.4488 27.5748 24.558 27.6992 24.558ZM27.6992 21.2282H30.3254C30.4497 21.2282 30.5603 21.1327 30.5603 20.9963V18.6764C30.5603 18.5535 30.4497 18.4443 30.3254 18.4443H27.6992C27.5748 18.4443 27.4642 18.5399 27.4642 18.6764V20.9963C27.4642 21.1191 27.5748 21.2282 27.6992 21.2282ZM31.362 27.8741H33.9881C34.1125 27.8741 34.2231 27.7785 34.2231 27.6421V25.3222C34.2231 25.1993 34.1264 25.0902 33.9881 25.0902H31.362C31.2376 25.0902 31.127 25.1857 31.127 25.3222V27.6421C31.1408 27.7785 31.2376 27.8741 31.362 27.8741" fill="#0091E2"/>
<defs>
<filter id="filter0_d_1261_2168" x="0" y="0" width="58" height="58" filterUnits="userSpaceOnUse" color-interpolation-filters="sRGB">
<feFlood flood-opacity="0" result="BackgroundImageFix"/>
<feColorMatrix in="SourceAlpha" type="matrix" values="0 0 0 0 0 0 0 0 0 0 0 0 0 0 0 0 0 0 127 0" result="hardAlpha"/>
<feOffset/>
<feGaussianBlur stdDeviation="2"/>
<feComposite in2="hardAlpha" operator="out"/>
<feColorMatrix type="matrix" values="0 0 0 0 0 0 0 0 0 0 0 0 0 0 0 0 0 0 0.25 0"/>
<feBlend mode="normal" in2="BackgroundImageFix" result="effect1_dropShadow_1261_2168"/>
<feBlend mode="normal" in="SourceGraphic" in2="effect1_dropShadow_1261_2168" result="shape"/>
</filter>
</defs>
</svg>
