<svg width="58" height="58" viewBox="0 0 58 58" fill="none" xmlns="http://www.w3.org/2000/svg">
<g filter="url(#filter0_d_1267_3075)">
<rect x="4" y="4" width="50" height="50" rx="25" fill="white"/>
</g>
<path d="M27.2812 25.8738H25.6408L25.6435 28.943C25.6435 29.8401 25.2588 30.5656 24.3628 30.5656C23.4669 30.5656 23.0777 29.8417 23.0777 28.943V25.8766H21.4401V28.943C21.4401 30.7154 22.5799 32.152 24.3523 32.152C26.1246 32.152 27.2812 30.7154 27.2812 28.943V25.8738ZM42.0726 24.0034H43.7053V31.9933H42.0726V24.0034ZM44.9102 24.298V24.0112H46.1826V24.298H45.7171V25.5631H45.3757V24.298H44.9102ZM46.8407 24.0112L47.2043 25.0786H47.2082L47.5518 24.0112H48.0323V25.5631H47.7127V24.4634H47.7083L47.328 25.5631H47.0668L46.6865 24.4739H46.682V25.5631H46.3624V24.0112H46.8407ZM20.1059 25.807C18.6988 25.4823 17.8112 26.88 17.7745 26.9551C17.7561 26.9919 17.7556 27.0108 17.6932 27.0108C17.642 27.0108 17.6375 26.9551 17.6375 26.9551L17.4632 25.886H15.9988V31.9883H17.6381V28.6852C17.6381 28.4151 18.3653 27.1211 19.7735 27.4541C20.4857 27.6211 20.7875 27.9246 20.7875 27.9246V26.0659C20.5736 25.948 20.3441 25.8608 20.1059 25.807ZM29.5057 33.9984V30.9804C29.5057 30.9804 29.5085 30.9147 29.5675 30.9142C29.6265 30.9136 29.6321 30.9487 29.6449 30.9804C29.7696 31.29 30.4528 32.4683 31.9696 32.0985C32.5478 31.9351 33.0689 31.6136 33.4743 31.1702C33.8798 30.7268 34.1535 30.1791 34.2647 29.5887C34.3759 28.9982 34.3203 28.3885 34.1039 27.828C33.8876 27.2675 33.5192 26.7784 33.0402 26.4158C32.5611 26.0531 31.9904 25.8313 31.3922 25.7753C30.7941 25.7192 30.1921 25.8312 29.654 26.0985C29.1159 26.3658 28.6631 26.7779 28.3464 27.2885C28.0297 27.7991 27.8618 28.3879 27.8614 28.9887V34.0001L29.5057 33.9984ZM31.0943 27.3533C31.4179 27.3532 31.7343 27.449 32.0034 27.6288C32.2725 27.8085 32.4823 28.064 32.6062 28.3629C32.7301 28.6619 32.7625 28.9909 32.6994 29.3082C32.6363 29.6256 32.4805 29.9172 32.2516 30.146C32.0228 30.3748 31.7313 30.5307 31.4139 30.5938C31.0965 30.6569 30.7675 30.6244 30.4685 30.5005C30.1696 30.3766 29.9141 30.1669 29.7344 29.8978C29.5547 29.6286 29.4588 29.3123 29.4589 28.9887C29.4589 28.5549 29.6312 28.139 29.9379 27.8323C30.2446 27.5256 30.6606 27.3533 31.0943 27.3533Z" fill="#2AA9E0"/>
<path d="M39.7668 31.991H41.41V28.9886C41.4096 28.3878 41.2416 27.799 40.9249 27.2884C40.6082 26.7778 40.1554 26.3657 39.6173 26.0984C39.0793 25.8311 38.4773 25.7192 37.8791 25.7752C37.2809 25.8313 36.7102 26.0531 36.2312 26.4157C35.7521 26.7783 35.3837 27.2674 35.1674 27.8279C34.9511 28.3884 34.8954 28.9982 35.0066 29.5886C35.1179 30.179 35.3916 30.7267 35.797 31.1701C36.2025 31.6135 36.7236 31.935 37.3017 32.0985C38.8185 32.4682 39.5017 31.2899 39.6265 30.9804C39.6393 30.9486 39.651 30.9135 39.7039 30.9141C39.7568 30.9146 39.7657 30.9804 39.7657 30.9804M39.813 28.9886C39.813 29.312 39.7171 29.6282 39.5374 29.8972C39.3577 30.1661 39.1023 30.3757 38.8034 30.4995C38.5046 30.6233 38.1758 30.6557 37.8586 30.5926C37.5413 30.5295 37.2499 30.3737 37.0212 30.145C36.7925 29.9163 36.6367 29.6249 36.5736 29.3076C36.5105 28.9904 36.5429 28.6616 36.6667 28.3628C36.7905 28.0639 37.0001 27.8085 37.269 27.6288C37.538 27.4491 37.8542 27.3532 38.1776 27.3532C38.6113 27.3533 39.0272 27.5257 39.3338 27.8324C39.6405 28.139 39.8129 28.5549 39.813 28.9886ZM10.8642 31.9782H9V24H11.0001C13.4229 24 15.2604 24.4455 15.2604 27.9891C15.2604 31.4999 13.3143 31.9782 10.8642 31.9782ZM11.3097 25.3832H10.6504V30.5939L11.327 30.6112C12.7151 30.6112 13.61 30.4853 13.61 27.9891C13.6094 25.5959 12.822 25.3832 11.3092 25.3832H11.3097Z" fill="#2AA9E0"/>
<defs>
<filter id="filter0_d_1267_3075" x="0" y="0" width="58" height="58" filterUnits="userSpaceOnUse" color-interpolation-filters="sRGB">
<feFlood flood-opacity="0" result="BackgroundImageFix"/>
<feColorMatrix in="SourceAlpha" type="matrix" values="0 0 0 0 0 0 0 0 0 0 0 0 0 0 0 0 0 0 127 0" result="hardAlpha"/>
<feOffset/>
<feGaussianBlur stdDeviation="2"/>
<feComposite in2="hardAlpha" operator="out"/>
<feColorMatrix type="matrix" values="0 0 0 0 0 0 0 0 0 0 0 0 0 0 0 0 0 0 0.25 0"/>
<feBlend mode="normal" in2="BackgroundImageFix" result="effect1_dropShadow_1267_3075"/>
<feBlend mode="normal" in="SourceGraphic" in2="effect1_dropShadow_1267_3075" result="shape"/>
</filter>
</defs>
</svg>
