<svg width="58" height="58" viewBox="0 0 58 58" fill="none" xmlns="http://www.w3.org/2000/svg">
<g filter="url(#filter0_d_1261_2307)">
<rect x="4" y="4" width="50" height="50" rx="25" fill="white"/>
</g>
<path d="M28.9268 29.3767C28.9268 26.3687 31.3694 23.9177 34.3948 23.9177C37.4078 23.9177 39.8629 26.3563 39.8629 29.3767C39.8629 32.3846 37.4202 34.8356 34.3948 34.8356C31.3818 34.8356 28.9268 32.3846 28.9268 29.3767Z" fill="#1ABCFE"/>
<path d="M18.0029 40.2822C18.0029 37.2742 20.4456 34.8232 23.471 34.8232H28.939V40.2822C28.939 43.2901 26.4964 45.7411 23.471 45.7411C20.4456 45.7411 18.0029 43.3025 18.0029 40.2822Z" fill="#0ACF83"/>
<path d="M28.9268 13.0124V23.9179H34.3948C37.4078 23.9179 39.8629 21.4793 39.8629 18.4589C39.8629 15.4509 37.4202 13 34.3948 13H28.9268V13.0124Z" fill="#FF7262"/>
<path d="M18.0029 18.4714C18.0029 21.4794 20.4456 23.9303 23.471 23.9303H28.939V13.0125H23.471C20.4456 13.0125 18.0029 15.451 18.0029 18.4714Z" fill="#F24E1E"/>
<path d="M18.0029 29.3767C18.0029 32.3846 20.4456 34.8356 23.471 34.8356H28.939V23.9177H23.471C20.4456 23.9177 18.0029 26.3687 18.0029 29.3767Z" fill="#A259FF"/>
<defs>
<filter id="filter0_d_1261_2307" x="0" y="0" width="58" height="58" filterUnits="userSpaceOnUse" color-interpolation-filters="sRGB">
<feFlood flood-opacity="0" result="BackgroundImageFix"/>
<feColorMatrix in="SourceAlpha" type="matrix" values="0 0 0 0 0 0 0 0 0 0 0 0 0 0 0 0 0 0 127 0" result="hardAlpha"/>
<feOffset/>
<feGaussianBlur stdDeviation="2"/>
<feComposite in2="hardAlpha" operator="out"/>
<feColorMatrix type="matrix" values="0 0 0 0 0 0 0 0 0 0 0 0 0 0 0 0 0 0 0.25 0"/>
<feBlend mode="normal" in2="BackgroundImageFix" result="effect1_dropShadow_1261_2307"/>
<feBlend mode="normal" in="SourceGraphic" in2="effect1_dropShadow_1261_2307" result="shape"/>
</filter>
</defs>
</svg>
