<svg width="58" height="58" viewBox="0 0 58 58" fill="none" xmlns="http://www.w3.org/2000/svg">
<g filter="url(#filter0_d_1261_2275)">
<rect x="4" y="4" width="50" height="50" rx="25" fill="white"/>
</g>
<path d="M43.9825 20.2392C43.994 20.2819 43.9999 20.3259 44 20.3701V27.2388C44 27.327 43.9768 27.4135 43.9327 27.4898C43.8887 27.5661 43.8253 27.6294 43.749 27.6732L37.9997 30.9924V37.5713C37.9997 37.7503 37.9048 37.9156 37.7499 38.0057L25.7486 44.9333C25.7212 44.949 25.6912 44.959 25.6612 44.9696C25.65 44.9734 25.6394 44.9803 25.6275 44.9834C25.5436 45.0055 25.4554 45.0055 25.3715 44.9834C25.3578 44.9796 25.3453 44.9721 25.3322 44.9671C25.3047 44.9571 25.276 44.9483 25.2498 44.9333L13.251 38.0057C13.1748 37.9618 13.1114 37.8986 13.0674 37.8223C13.0233 37.746 13.0001 37.6594 13 37.5713V16.9651C13 16.9201 13.0062 16.8762 13.0175 16.8337C13.0212 16.8193 13.03 16.8061 13.035 16.7917C13.0443 16.7654 13.0531 16.7385 13.0668 16.7141C13.0762 16.6978 13.0899 16.6847 13.1011 16.6697C13.1155 16.6496 13.1286 16.629 13.1455 16.6114C13.1598 16.597 13.1786 16.5864 13.1948 16.5739C13.2129 16.5589 13.2291 16.5426 13.2497 16.5307L19.2501 13.0669C19.326 13.0231 19.4122 13 19.4998 13C19.5874 13 19.6736 13.0231 19.7495 13.0669L25.7492 16.5307H25.7505C25.7705 16.5432 25.7873 16.5589 25.8054 16.5733C25.8217 16.5858 25.8398 16.597 25.8541 16.6108C25.8716 16.629 25.8841 16.6496 25.8991 16.6697C25.9097 16.6847 25.9241 16.6978 25.9328 16.7141C25.9472 16.7391 25.9553 16.7654 25.9653 16.7917C25.9703 16.8061 25.979 16.8193 25.9827 16.8343C25.9942 16.877 26.0001 16.921 26.0002 16.9651V29.8355L30.9998 26.9489V20.3695C30.9998 20.3256 31.006 20.2812 31.0173 20.2392C31.0216 20.2242 31.0297 20.2111 31.0347 20.1967C31.0447 20.1704 31.0535 20.1435 31.0672 20.119C31.0766 20.1028 31.0903 20.0896 31.1009 20.0746C31.1159 20.0546 31.1284 20.0339 31.1459 20.0164C31.1602 20.002 31.1783 19.9913 31.1946 19.9788C31.2133 19.9638 31.2295 19.9475 31.2495 19.9356L37.2505 16.4718C37.3264 16.4279 37.4125 16.4048 37.5002 16.4048C37.5879 16.4048 37.674 16.4279 37.7499 16.4718L43.7496 19.9356C43.7709 19.9481 43.7871 19.9638 43.8058 19.9782C43.8214 19.9907 43.8396 20.002 43.8539 20.0157C43.8714 20.0339 43.8839 20.0546 43.8989 20.0746C43.9101 20.0896 43.9238 20.1028 43.9326 20.119C43.9469 20.1435 43.955 20.1704 43.965 20.1967C43.9707 20.2111 43.9788 20.2242 43.9825 20.2392ZM42.9998 26.9489V21.2371L40.9003 22.4491L37.9997 24.1237V29.8355L43.0005 26.9489H42.9998ZM37.0001 37.2814V31.5659L34.147 33.1998L25.9996 37.8624V43.6318L37.0001 37.2814ZM14.0002 17.8322V37.2814L24.9994 43.6312V37.863L19.2532 34.6021L19.2513 34.6008L19.2488 34.5996C19.2295 34.5883 19.2132 34.572 19.1951 34.5582C19.1795 34.5457 19.1614 34.5357 19.1477 34.5219L19.1464 34.5201C19.1302 34.5044 19.119 34.485 19.1052 34.4675C19.0927 34.4506 19.0778 34.4362 19.0678 34.4186L19.0671 34.4168C19.0559 34.398 19.049 34.3754 19.0409 34.3542C19.0328 34.3354 19.0222 34.3178 19.0172 34.2978C19.011 34.274 19.0097 34.2484 19.0072 34.2239C19.0047 34.2052 18.9997 34.1864 18.9997 34.1676V20.7188L16.0998 19.0435L14.0002 17.8322ZM19.5004 14.0798L14.5015 16.9651L19.4992 19.8505L24.4975 16.9645L19.4992 14.0798H19.5004ZM22.1001 32.0867L25.0001 30.4127V17.8322L22.9005 19.0442L19.9999 20.7188V33.2993L22.1001 32.0867ZM37.5002 17.4847L32.5019 20.3701L37.5002 23.2554L42.4979 20.3695L37.5002 17.4847ZM37.0001 24.1237L34.0995 22.4491L31.9999 21.2371V26.9489L34.8999 28.6229L37.0001 29.8355V24.1237ZM25.4989 36.9953L32.8303 32.7985L36.495 30.7013L31.5005 27.8179L25.7499 31.1377L20.5087 34.1632L25.4989 36.9953Z" fill="#FF2D20"/>
<defs>
<filter id="filter0_d_1261_2275" x="0" y="0" width="58" height="58" filterUnits="userSpaceOnUse" color-interpolation-filters="sRGB">
<feFlood flood-opacity="0" result="BackgroundImageFix"/>
<feColorMatrix in="SourceAlpha" type="matrix" values="0 0 0 0 0 0 0 0 0 0 0 0 0 0 0 0 0 0 127 0" result="hardAlpha"/>
<feOffset/>
<feGaussianBlur stdDeviation="2"/>
<feComposite in2="hardAlpha" operator="out"/>
<feColorMatrix type="matrix" values="0 0 0 0 0 0 0 0 0 0 0 0 0 0 0 0 0 0 0.25 0"/>
<feBlend mode="normal" in2="BackgroundImageFix" result="effect1_dropShadow_1261_2275"/>
<feBlend mode="normal" in="SourceGraphic" in2="effect1_dropShadow_1261_2275" result="shape"/>
</filter>
</defs>
</svg>
