<svg width="98" height="98" viewBox="0 0 98 98" fill="none" xmlns="http://www.w3.org/2000/svg">
<g filter="url(#filter0_d_1261_2300)">
<rect x="4" y="4" width="90" height="90" rx="45" fill="white"/>
</g>
<path d="M61.1691 39.1948L53.6825 41.6395L47.1692 44.5141L45.347 44.9952C44.8829 45.4366 44.3963 45.8837 43.87 46.3364C43.2929 46.8343 42.7553 47.2871 42.3421 47.6153C41.8838 47.9775 41.2047 48.6565 40.8595 49.0865C40.3446 49.7316 39.9371 50.4163 39.7617 50.9426C39.4504 51.8933 39.6033 52.8553 40.2031 53.7438C40.9727 54.8755 42.5063 56.0299 44.2944 56.8165C45.2056 57.2183 46.7391 57.7332 47.8934 58.0218C49.8117 58.5085 53.524 59.0348 55.5668 59.1141C55.9798 59.131 56.5344 59.131 56.557 59.1141C56.6023 59.0857 56.9192 58.4802 57.2871 57.7277C58.5434 55.1641 59.4488 52.7591 59.9411 50.705C60.2353 49.4601 60.4673 47.802 60.62 45.8385C60.6597 45.2896 60.6766 43.4504 60.6427 42.8279C60.5917 41.8094 60.5012 40.9832 60.3598 40.174C60.3372 40.0551 60.3314 39.9476 60.3428 39.9419C60.3654 39.925 60.4333 39.9024 61.3557 39.6363L61.169 39.195V39.1949H61.1691V39.1948ZM59.4602 40.1965C59.5281 40.1965 59.7091 41.9337 59.7543 43.0316C59.7657 43.2636 59.76 43.4164 59.7487 43.4164C59.7035 43.4164 58.7923 42.8789 58.1417 42.4714C57.5758 42.1149 56.5006 41.4019 56.3309 41.2661C56.2742 41.2265 56.2798 41.2208 56.7439 41.0623C57.5304 40.7963 59.3979 40.1965 59.4602 40.1965ZM55.6461 41.4528C55.697 41.4528 55.8271 41.5263 56.1384 41.7187C57.3041 42.4487 58.8886 43.3315 59.5676 43.6258C59.777 43.7164 59.7995 43.6824 59.3186 44.0106C58.2887 44.7123 57.0041 45.4026 55.4309 46.0987C55.1537 46.2232 54.9217 46.3194 54.9161 46.3194C54.9048 46.3194 54.9387 46.178 54.9839 46.0082C55.363 44.599 55.5781 43.173 55.5895 42.0299C55.5951 41.464 55.5951 41.464 55.6461 41.4471C55.6347 41.4528 55.6403 41.4528 55.6461 41.4528ZM54.8595 41.7527C54.8934 41.7866 54.8708 43.0542 54.8255 43.3994C54.7237 44.2256 54.5652 44.9952 54.305 45.8611C54.2427 46.0703 54.186 46.2458 54.1749 46.2571C54.1521 46.2854 53.3768 45.5271 53.1222 45.2328C52.6808 44.7235 52.3357 44.2142 52.081 43.7163C51.9509 43.4616 51.7472 42.9637 51.7641 42.9467C51.8546 42.8844 54.8369 41.7301 54.8595 41.7527ZM51.1586 43.207C51.1642 43.207 51.1699 43.207 51.1756 43.2126C51.1869 43.2239 51.2266 43.3145 51.2605 43.4163C51.4415 43.9087 51.8489 44.633 52.1999 45.097C52.5846 45.6064 53.0883 46.1496 53.507 46.5061C53.6429 46.6192 53.7673 46.7267 53.7842 46.7437C53.8182 46.7777 53.8295 46.772 52.9071 47.1229C51.8377 47.5303 50.6719 47.9377 49.3364 48.3678C49.0174 48.4706 48.6986 48.5744 48.3802 48.679C48.3292 48.6961 48.3462 48.6677 48.4933 48.4358C49.1554 47.4002 50.1626 45.3687 50.7285 43.9313C50.8248 43.6823 50.9209 43.4334 50.938 43.3768C50.9606 43.2975 50.9888 43.2692 51.0624 43.2296C51.102 43.2184 51.1417 43.207 51.1586 43.207ZM50.0269 43.6767C50.0439 43.688 49.7552 44.2935 49.4723 44.848C48.9234 45.9175 48.3235 46.9702 47.52 48.249C47.3842 48.4697 47.2541 48.6735 47.2371 48.6961C47.2088 48.7357 47.1974 48.7243 47.1069 48.549C46.9145 48.1698 46.756 47.6831 46.6712 47.236C46.5862 46.7946 46.6033 46.0251 46.6995 45.5498C46.773 45.1989 46.7674 45.2046 46.9371 45.1197C47.6615 44.7519 50.0043 43.654 50.0269 43.6767ZM59.7884 44.0728V44.3105C59.7884 45.5724 59.6526 47.304 59.4544 48.566C59.4205 48.7866 59.3921 48.9677 59.3865 48.9734C59.3865 48.9734 59.2224 48.9282 59.03 48.8715C58.1812 48.6055 57.2588 48.2151 56.427 47.7568C55.878 47.4568 55.0801 46.9645 55.1028 46.9418C55.1084 46.9362 55.3461 46.8117 55.6233 46.6645C56.7326 46.0874 57.7964 45.4649 58.7188 44.8481C59.064 44.6161 59.5845 44.2426 59.6978 44.1407L59.7884 44.0728ZM45.7544 45.7477C45.777 45.7477 45.7714 45.793 45.7374 45.9967C45.7148 46.1439 45.6865 46.4155 45.6753 46.6022C45.6299 47.4284 45.7658 48.0396 46.1732 48.8771C46.2864 49.1091 46.377 49.3015 46.3712 49.3071C46.3316 49.3411 42.5855 50.439 41.4084 50.7615C41.0576 50.8577 40.7521 50.9426 40.7293 50.9482C40.6898 50.9595 40.6841 50.9539 40.7011 50.8576C40.8312 50.0258 41.465 48.9393 42.3478 48.0226C42.9363 47.4114 43.406 47.0549 44.2096 46.5965C44.7868 46.2684 45.6752 45.7761 45.7431 45.7534C45.7431 45.7477 45.7488 45.7477 45.7544 45.7477ZM54.5822 47.3266C54.5879 47.3209 54.7237 47.3945 54.8877 47.4907C56.0988 48.1924 57.7851 48.8432 59.2223 49.177L59.3526 49.2054L59.1714 49.3071C58.4189 49.7259 55.9459 50.7558 53.4165 51.7009C53.0486 51.8366 52.6865 51.9725 52.6185 52.0008C52.5506 52.029 52.4883 52.046 52.4883 52.0404C52.4883 52.0347 52.5903 51.8366 52.7203 51.5933C53.4277 50.2692 54.1407 48.6564 54.5029 47.536C54.5483 47.4284 54.5765 47.3323 54.5822 47.3266ZM53.6825 47.6209C53.6882 47.6266 53.6429 47.7454 53.5863 47.8812C53.094 49.0752 52.4488 50.3768 51.6226 51.8367C51.4133 52.2102 51.2378 52.5102 51.2321 52.5102C51.2265 52.5102 51.0567 52.4083 50.853 52.2838C49.6533 51.5481 48.5895 50.6427 47.8935 49.7656L47.7916 49.6411L48.3065 49.4996C50.1513 48.996 51.7187 48.4528 53.275 47.7851C53.4957 47.6945 53.6768 47.6209 53.6825 47.6209ZM59.2734 49.5732C59.279 49.7033 58.9904 50.8691 58.7527 51.7121C58.5547 52.4195 58.3848 52.9741 58.0737 53.953C57.9379 54.3832 57.8191 54.7396 57.8134 54.7396C57.8077 54.7396 57.7738 54.734 57.7398 54.7227C56.0592 54.417 54.5539 53.9927 53.1392 53.4268C52.743 53.2683 52.1772 53.0137 52.1433 52.9854C52.132 52.974 52.4715 52.8156 52.9016 52.6289C55.4763 51.5028 58.1473 50.2238 59.064 49.675C59.1715 49.6071 59.2564 49.5732 59.2734 49.5732ZM46.3656 50.0146C46.3769 50.0259 45.6583 51.0615 44.6509 52.4705C44.3001 52.9628 43.8927 53.54 43.7399 53.755C43.5871 53.9701 43.3551 54.3096 43.225 54.5133L42.9872 54.8812L42.7325 54.6661C42.4326 54.4171 41.9121 53.8852 41.6801 53.5909C41.1934 52.9855 40.8652 52.346 40.735 51.7632C40.6728 51.4916 40.6728 51.3557 40.7293 51.3388C40.8142 51.3162 42.3251 50.9596 43.7399 50.6314C44.5265 50.4503 45.4375 50.2353 45.7657 50.1561C46.0939 50.0767 46.36 50.0146 46.3656 50.0146ZM47.0899 50.2919L47.2709 50.4956C48.0859 51.4067 48.9177 52.0802 49.925 52.6686C50.1061 52.7705 50.2419 52.861 50.2305 52.8667C50.191 52.895 46.7334 54.1228 45.1319 54.6774C44.2322 54.9943 43.4909 55.2489 43.4853 55.2489C43.4797 55.2489 43.4287 55.215 43.372 55.1754L43.2702 55.1018L43.4343 54.8642C43.9662 54.0946 44.6341 53.2514 46.0884 51.4972L47.0899 50.2919ZM51.6057 53.523C51.6113 53.5174 51.8603 53.6079 52.1658 53.7212C52.9016 53.9984 53.4843 54.1738 54.2653 54.3719C55.2273 54.6152 56.6194 54.8529 57.44 54.9208C57.5645 54.9321 57.6324 54.9434 57.6097 54.9604C57.57 54.9831 56.7383 55.2604 56.1271 55.4528C55.1537 55.7583 52.1829 56.6354 49.7609 57.3315C49.3139 57.4616 48.929 57.5691 48.9064 57.5747C48.8499 57.5861 48.6631 57.5351 48.6631 57.5125C48.6631 57.5012 48.7989 57.3258 48.963 57.1334C49.7778 56.1601 50.5871 55.0736 51.2605 54.0437C51.4472 53.7607 51.6057 53.5287 51.6057 53.523ZM50.6097 53.5514C50.6153 53.557 50.2136 54.2021 49.512 55.3112C49.212 55.7809 48.8781 56.3128 48.7592 56.4996C48.6461 56.6806 48.4763 56.9636 48.3801 57.122L48.216 57.4107L48.1311 57.388C47.9274 57.3314 46.4957 56.8277 46.1166 56.675C45.6469 56.4882 45.1602 56.2619 44.798 56.0695C44.3454 55.8262 43.7795 55.464 43.8247 55.4527C43.836 55.4471 44.6113 55.2376 45.545 54.983C48.0236 54.3095 49.3986 53.9191 50.2985 53.6362C50.4626 53.5853 50.604 53.5456 50.6097 53.5514ZM57.6549 55.2037H57.6606C57.6832 55.2603 56.7666 57.8068 56.4325 58.6103C56.3591 58.7913 56.3309 58.8367 56.2912 58.8309C56.195 58.8254 54.8652 58.6386 54.0559 58.5198C52.6469 58.3047 50.2815 57.8916 49.6873 57.7558L49.5516 57.7276L50.3946 57.535C52.2055 57.1276 53.0769 56.907 53.9597 56.6353C55.0745 56.2958 56.178 55.8714 57.2928 55.3508C57.4682 55.2716 57.6153 55.2093 57.6549 55.2037Z" fill="url(#paint0_linear_1261_2300)"/>
<path d="M53.4502 21.743C53.3257 21.7261 51.3167 22.4504 50.0209 22.9766C48.2723 23.6897 46.9142 24.3688 46.0767 24.9572C45.7655 25.178 45.375 25.5684 45.3128 25.7211C45.2902 25.7777 45.2788 25.8456 45.2788 25.9135L46.0371 26.6322L47.8422 27.2094L52.1373 27.979L57.0491 28.8222L57.1001 28.3978C57.0832 28.3978 57.0718 28.3922 57.055 28.3922L56.4097 28.2903L56.2796 28.0583C55.6118 26.8812 54.8762 25.4212 54.4462 24.4366C54.1123 23.6726 53.7954 22.7899 53.6199 22.1561C53.5237 21.7713 53.5125 21.7487 53.4503 21.7431V21.7429H53.4502V21.743ZM53.3595 22.0317H53.3653C53.3709 22.0372 53.3935 22.1958 53.4162 22.3824C53.5123 23.1748 53.6879 23.9386 53.9651 24.7648C54.1745 25.3873 54.1745 25.3534 53.9312 25.2798C53.354 25.1214 50.7679 24.6743 48.8948 24.414C48.5949 24.3744 48.3402 24.3348 48.3402 24.3292C48.3176 24.3065 49.6927 23.5878 50.2982 23.3049C51.0734 22.9483 53.2011 22.0599 53.3595 22.0317ZM47.9044 24.5668L48.1252 24.6403C49.3248 25.0478 52.3409 25.625 54.0047 25.7608C54.1914 25.7778 54.3499 25.7948 54.3555 25.7948C54.3611 25.8004 54.2027 25.8853 53.999 25.9815C53.1955 26.3833 52.3127 26.8756 51.7015 27.2547C51.5205 27.3679 51.3563 27.4585 51.3337 27.4585C51.3111 27.4585 51.1923 27.4358 51.0678 27.4188L50.8415 27.3848L50.2756 26.8302C49.2797 25.8626 48.4987 25.1157 48.1988 24.8327L47.9044 24.5668ZM47.6782 24.7422L48.476 25.7382C48.9117 26.2871 49.3531 26.8246 49.4494 26.9434C49.5455 27.0623 49.6248 27.1586 49.6192 27.1642C49.5965 27.1812 48.4648 26.9604 47.8649 26.8247C47.2481 26.6832 46.9935 26.6153 46.6143 26.4965L46.3031 26.3946V26.3153C46.3087 25.9361 46.7898 25.3703 47.6046 24.7932L47.6782 24.7422ZM54.4574 26.1003C54.4801 26.1003 54.5083 26.1512 54.5762 26.304C54.7686 26.7284 55.3685 27.8715 55.5155 28.0922C55.5609 28.1658 55.64 28.1715 54.8422 28.0413C52.9239 27.73 52.307 27.6282 52.307 27.6169C52.307 27.6113 52.3637 27.5716 52.4372 27.532C53.0314 27.2039 53.6312 26.7851 54.1632 26.338C54.2933 26.2305 54.4122 26.1286 54.4348 26.1116C54.4404 26.1003 54.4518 26.0947 54.4574 26.1003Z" fill="url(#paint1_linear_1261_2300)"/>
<path d="M45.3526 25.6421C45.3526 25.6421 45.2282 25.8402 45.347 26.1345C45.4206 26.3155 45.6356 26.5362 45.8789 26.7626C45.8789 26.7626 48.397 29.2185 48.7026 29.5694C50.0947 31.1764 50.7002 32.7609 50.7568 34.9453C50.7907 36.3487 50.5247 37.5823 49.8627 39.014C48.6856 41.5831 46.2014 44.4182 42.3704 47.5645L42.9307 47.3778C43.2928 47.1061 43.7852 46.8176 44.9395 46.1838C47.6048 44.7237 50.604 43.3826 54.2823 42.0018C59.5788 40.0099 68.2878 37.6784 73.2449 36.9202L73.7599 36.8409L73.6806 36.7164C73.228 36.0147 72.9167 35.579 72.5431 35.115C71.4567 33.7682 70.1383 32.6761 68.5254 31.7706C66.3072 30.5314 63.4381 29.5637 59.8052 28.8451C59.1205 28.7092 57.6152 28.4489 56.3929 28.2622C53.8012 27.8605 52.1262 27.5832 50.2814 27.2663C49.6194 27.153 48.629 26.9833 47.9726 26.8419C47.6331 26.7682 46.9824 26.6155 46.4731 26.4401C46.0656 26.2815 45.4771 26.1231 45.3526 25.6421ZM46.8126 27.0569C46.8182 27.0513 46.9087 27.0851 47.0277 27.1248C47.2427 27.1982 47.5199 27.2832 47.8482 27.3738C48.0966 27.4421 48.3456 27.5081 48.5952 27.5718C48.9347 27.6566 49.2176 27.7359 49.2232 27.7359C49.2629 27.7755 49.8345 29.6032 50.0269 30.3049C50.1003 30.5709 50.1571 30.7972 50.1514 30.7972C50.1456 30.803 50.0834 30.7067 50.0099 30.5766C49.3478 29.4108 48.3009 28.2282 47.0899 27.2774C46.9315 27.1644 46.8126 27.0625 46.8126 27.0569ZM49.5968 27.8264C49.6251 27.8264 49.7496 27.8434 49.9023 27.8774C50.8643 28.0924 52.5903 28.4206 53.6937 28.6074C53.8805 28.6356 54.0276 28.6697 54.0276 28.6809C54.0276 28.6923 53.9597 28.7318 53.8748 28.7771C53.6881 28.8733 52.9354 29.3203 52.6865 29.4901C52.0583 29.9089 51.4925 30.3616 51.085 30.769C50.9209 30.9331 50.7794 31.0689 50.7794 31.0689C50.7794 31.0689 50.7455 30.9727 50.7171 30.8538C50.5135 30.0673 50.089 28.9015 49.7043 28.081C49.642 27.9509 49.591 27.8321 49.591 27.8208C49.591 27.8321 49.591 27.8264 49.5968 27.8264ZM54.4973 28.7602C54.5312 28.7714 54.5878 28.9639 54.701 29.3882C54.9104 30.2088 55.0066 31.1255 54.9726 31.98C54.9613 32.2177 54.95 32.4383 54.9386 32.4667L54.9217 32.5232L54.6274 32.4271C54.0219 32.2347 53.0373 31.946 52.1942 31.7084C51.7131 31.5782 51.3228 31.4594 51.3228 31.4481C51.3228 31.4141 52.0245 30.7124 52.3244 30.4465C52.8958 29.9428 54.4463 28.7431 54.4973 28.7602ZM54.8877 28.8167C54.9047 28.7998 57.2305 29.2015 58.2887 29.4052C59.0754 29.558 60.2184 29.7957 60.2863 29.824C60.3202 29.8353 60.2014 29.9032 59.8222 30.0729C58.3283 30.7464 57.2191 31.3518 56.1158 32.0875C55.8272 32.2799 55.5838 32.4383 55.5782 32.4383C55.5725 32.4383 55.5669 32.2743 55.5669 32.0762C55.5669 31.0011 55.3518 29.9145 54.9556 28.9978C54.916 28.9073 54.8821 28.8224 54.8877 28.8167ZM60.903 30.0051C60.9201 30.0221 60.8464 30.4805 60.7785 30.752C60.5749 31.5952 60.026 32.8459 59.3526 34.0229C59.2337 34.2322 59.1262 34.402 59.1148 34.4077C59.1036 34.4133 58.9508 34.3284 58.7753 34.2265C58.1189 33.8417 57.372 33.4796 56.5571 33.14C56.3308 33.0439 56.1327 32.9646 56.127 32.9534C56.0873 32.9194 57.9095 31.714 58.8716 31.1368C59.6355 30.6728 60.8804 29.9824 60.903 30.0051ZM61.3331 30.073C61.3841 30.073 62.414 30.3559 62.9515 30.5144C64.2814 30.9105 65.8092 31.4707 66.8052 31.9234L67.2182 32.1102L66.9297 32.1781C64.4965 32.7383 62.414 33.3835 60.4051 34.1983C60.2409 34.2662 60.0938 34.3228 60.0826 34.3228C60.0712 34.3228 60.1278 34.1927 60.2014 34.0342C60.8069 32.7496 61.1973 31.4085 61.2935 30.2653C61.2992 30.1578 61.3161 30.073 61.3331 30.073ZM51.0794 32.4271C51.0963 32.4101 51.8829 32.5968 52.3073 32.7156C52.9524 32.8967 54.3218 33.355 54.3218 33.389C54.3218 33.3947 54.1691 33.5248 53.9881 33.6833C53.2467 34.3001 52.5337 34.9508 51.6791 35.777C51.4245 36.0205 51.2095 36.2185 51.1982 36.2185C51.1869 36.2185 51.1813 36.1845 51.1869 36.1392C51.317 35.1885 51.2888 33.9662 51.1077 32.727C51.0907 32.5685 51.0737 32.4327 51.0794 32.4271ZM67.6088 32.4441C67.62 32.4553 67.2466 33.0439 67.0089 33.3777C66.6695 33.8643 66.1713 34.5096 65.0452 35.9242C64.4512 36.6711 63.7833 37.5144 63.5627 37.7973C63.3363 38.0802 63.1496 38.3178 63.1439 38.3178C63.1382 38.3178 63.0648 38.216 62.9855 38.0916C62.3517 37.1408 61.5934 36.309 60.6936 35.562C60.5239 35.4205 60.3372 35.2677 60.2749 35.2225C60.2127 35.1772 60.1617 35.1319 60.1617 35.1263C60.1617 35.1094 61.1236 34.6962 61.8537 34.402C63.1327 33.8813 64.8754 33.2589 66.1827 32.8571C66.8674 32.6421 67.5974 32.4327 67.6088 32.4441ZM68.0445 32.5572C68.0671 32.5516 68.2029 32.6195 68.367 32.7156C69.7422 33.5022 71.0889 34.5151 72.1528 35.5564C72.4527 35.8507 73.194 36.6203 73.1826 36.6259C73.1826 36.6259 72.9223 36.6485 72.6168 36.6711C70.2345 36.8523 67.1844 37.3558 64.2531 38.0632C64.0551 38.1084 63.8797 38.148 63.8683 38.148C63.8571 38.148 64.0777 37.9274 64.355 37.6614C66.0753 36.0034 66.8619 34.9565 67.7899 33.0891C67.92 32.8119 68.0332 32.5742 68.0445 32.5572C68.0389 32.5572 68.0389 32.5572 68.0445 32.5572ZM55.4423 33.8475C55.5216 33.8644 56.2572 34.2097 56.8117 34.4869C57.321 34.7414 58.085 35.149 58.1246 35.1829C58.1302 35.1885 57.8586 35.33 57.5248 35.4941C56.4609 36.026 55.5499 36.5296 54.5991 37.1068C54.3275 37.271 54.1012 37.4069 54.0955 37.4069C54.0729 37.4069 54.0785 37.3841 54.2313 37.1068C54.7407 36.1789 55.148 35.0697 55.3801 33.9889C55.4027 33.904 55.4253 33.8475 55.4423 33.8475ZM54.7066 33.9832C54.7236 34.0002 54.5312 34.6962 54.4124 35.0754C54.1804 35.7941 53.7899 36.6938 53.4108 37.3729C53.3202 37.5312 53.1844 37.7633 53.1108 37.8934L52.9694 38.1197L52.6525 37.8143C52.2847 37.4577 51.9847 37.237 51.6 37.0389C51.4471 36.9598 51.3284 36.8918 51.3284 36.8805C51.3284 36.8353 52.296 35.9582 53.0373 35.3244C53.5692 34.866 54.6897 33.9663 54.7066 33.9832ZM59.2055 35.8337L59.4828 36.0147C60.1164 36.4279 60.8634 36.9767 61.435 37.4577C61.7575 37.7236 62.3799 38.2839 62.5045 38.4197L62.5723 38.4934L62.1141 38.6235C59.5223 39.3421 57.5191 39.9815 55.182 40.8417C54.9217 40.9379 54.701 41.0171 54.684 41.0171C54.6501 41.0171 54.6217 41.0454 55.2047 40.5078C56.6986 39.1328 58.0227 37.6161 59.0074 36.1392L59.2055 35.8337ZM58.0228 36.1279C58.034 36.1392 57.2588 37.2313 56.7947 37.8482C56.2402 38.5838 55.2555 39.8174 54.5765 40.6209C54.2936 40.9549 54.0503 41.2321 54.0389 41.2378C54.0219 41.2434 54.0163 41.1586 54.0163 41.0284C54.0163 40.3436 53.8409 39.6137 53.5353 38.9912C53.4051 38.7309 53.3825 38.6687 53.4109 38.6404C53.5183 38.5442 55.165 37.6048 56.2062 37.0446C56.9079 36.6712 58.0056 36.1166 58.0228 36.1279ZM50.8699 37.8822C50.887 37.8822 51.0171 37.95 51.1643 38.0293C51.5264 38.2273 51.849 38.448 52.1376 38.6857C52.1488 38.697 52.0018 38.8159 51.8094 38.9573C51.2718 39.3421 50.4569 39.9589 49.9816 40.3381C49.4835 40.7342 49.4667 40.7455 49.5232 40.6607C49.8967 40.0891 50.0834 39.7665 50.2815 39.3535C50.4569 38.9857 50.6323 38.5499 50.7568 38.1708C50.802 38.0067 50.8587 37.8822 50.8699 37.8822ZM52.777 39.3761C52.8053 39.3705 52.8393 39.4213 52.992 39.6477C53.3146 40.1286 53.5636 40.7738 53.6259 41.2944L53.6371 41.4077L52.862 41.7076C51.4755 42.2451 50.1966 42.7771 49.3307 43.1731C49.0875 43.2864 48.663 43.49 48.3858 43.6259C48.1085 43.7673 47.8821 43.8749 47.8821 43.8692C47.8821 43.8636 48.0575 43.7334 48.2726 43.5749C49.9647 42.347 51.4302 41.0002 52.528 39.6534C52.6469 39.5119 52.7544 39.3817 52.7657 39.3761L52.777 39.3761ZM51.8999 39.5911C51.9226 39.6138 51.2775 40.3437 50.8361 40.7908C49.7439 41.9056 48.6631 42.7771 47.3219 43.6259C47.1522 43.7334 46.9994 43.8296 46.9824 43.841C46.9428 43.8636 46.9937 43.807 47.5822 43.1675C47.9557 42.7657 48.2386 42.4262 48.5612 42.0075C48.7762 41.7303 48.8158 41.6906 49.1271 41.4698C49.959 40.87 51.8773 39.5685 51.8999 39.5911Z" fill="url(#paint2_radial_1261_2300)"/>
<path d="M27.3955 63.0225C27.2911 63.0225 27.1867 63.0325 27.0832 63.0325C24.9747 63.1448 23.5527 64.0727 22.7212 65.8848C22.0101 67.5236 22.0877 69.6659 22.7292 71.3148C23.4751 72.9259 24.6804 73.7762 26.6923 74.0974C27.118 74.1671 27.4034 74.4008 28.2279 75.3634L29.2423 76.5519H31.0822L29.8588 75.3186C29.1825 74.6424 28.6355 74.0536 28.6355 74.0019C28.6355 73.9502 28.8942 73.8368 29.2074 73.7414C30.2397 73.429 31.097 72.6314 31.6967 71.4091C32.182 70.4276 32.2517 70.1242 32.3213 68.903C32.5033 65.2681 30.5868 62.9955 27.3954 63.0215L27.3955 63.0225ZM29.0085 72.5281C28.1135 72.9617 26.8138 73.0482 25.9654 72.737C25.0882 72.4148 24.2389 71.5038 23.8569 70.4725C23.4323 69.3447 23.4929 67.2642 23.9783 66.3273C24.7589 64.8355 25.7913 64.1493 27.3 64.1493C29.5376 64.1493 30.8106 65.5198 30.9767 68.0956C31.108 70.2458 30.3879 71.8589 29.0095 72.5272L29.0085 72.5281ZM60.7914 66.1274C60.0197 66.1274 59.429 66.4398 59.0311 67.0552L58.7188 67.5426V66.2755H57.3832V73.8737H58.7179V71.4451C58.7179 69.2243 58.7456 68.9647 59.056 68.357C59.4837 67.5236 60.2195 67.1081 60.9307 67.307L61.408 67.4462V66.1294H60.7914V66.1274ZM52.9447 66.0577C52.6831 66.0577 52.4056 66.0926 52.1292 66.1533C50.342 66.6206 49.3346 68.3312 49.3962 70.0915C49.3962 71.5655 49.6825 72.3023 50.3938 73.0751C51.8508 74.2705 53.1685 74.3659 54.9466 73.7246C55.25 73.5953 55.5802 73.4461 55.5802 73.4461V72.2507L54.9466 72.5789C53.5075 73.2054 52.4235 73.2054 51.5552 72.4675C51.0014 71.9036 50.7577 71.2273 50.6454 70.4556H56.0306V69.4311C56.0306 67.3427 54.7736 66.0239 52.9436 66.0577H52.9447ZM50.7667 69.3894C50.7667 69.3894 50.9656 68.0866 51.7035 67.5754C52.0587 67.3247 52.4663 67.2035 52.8651 67.2035C53.2649 67.2035 53.6637 67.3327 53.9929 67.5844C54.6693 68.1045 54.7826 69.3796 54.7826 69.3796H50.7667V69.3894H50.7667ZM18.5671 68.019C17.1191 67.1418 16.4766 66.5092 16.5552 65.7634C16.7799 63.6997 19.3299 63.9852 20.7421 64.7659L20.7521 63.3776C20.7521 63.3776 19.9714 63.0395 18.8525 63.0215C17.136 62.9957 16.0261 63.5585 15.506 64.7042C14.7421 66.3949 15.4185 67.6698 17.8631 69.0921C19.2355 69.8906 19.8421 70.5839 19.8421 71.3397C19.8421 72.9011 17.9595 73.4461 16.0172 72.4665C15.6175 72.2676 15.2793 72.1015 15.2614 72.1015C15.1918 72.5441 15.2277 73.6032 15.2277 73.6032C15.2277 73.6032 15.8244 73.8539 16.7194 74.0268C18.9391 74.4693 20.959 73.4281 21.15 71.7374C21.3161 70.1502 20.7421 69.3177 18.5671 68.0179L18.5671 68.019ZM72.6123 66.0399C72.3517 66.0399 72.0752 66.0757 71.7868 66.1363C70.0017 66.6038 68.9961 68.3144 69.0647 70.0747C69.0647 71.5466 69.3502 72.2766 70.0613 73.0483C71.5183 74.2447 72.836 74.3411 74.6232 73.6988C74.9255 73.5695 75.2547 73.4224 75.2547 73.4224V72.225L74.6222 72.5551C73.1802 73.1797 72.0961 73.1797 71.2309 72.4417C70.674 71.8788 70.4323 71.2105 70.3199 70.4298H75.6963V69.4054C75.6963 67.3269 74.4392 66.0072 72.6093 66.042L72.6123 66.0399ZM70.4342 69.3715C70.4342 69.3715 70.6352 68.0707 71.3721 67.5495C71.7262 67.298 72.1339 67.1766 72.5327 67.1766C72.9305 67.1766 73.3313 67.3059 73.6606 67.5585C74.3368 68.0786 74.4503 69.3625 74.4503 69.3625H70.4353L70.4342 69.3715ZM45.9532 68.0359C44.5052 67.1607 43.8646 66.5262 43.9422 65.7802C44.167 63.7156 46.717 64.0021 48.1292 64.7828L48.1392 63.3945C48.1392 63.3945 47.3584 63.0563 46.2396 63.0404C44.523 63.0145 43.4131 63.5774 42.8921 64.7231C42.1293 66.4137 42.8145 67.6887 45.2511 69.1109C46.6216 69.9086 47.2282 70.5928 47.2282 71.3486C47.2282 72.91 45.3466 73.464 43.4042 72.4754C43.0064 72.2765 42.6684 72.1123 42.6485 72.1123C42.5788 72.5548 42.6147 73.6141 42.6147 73.6141C42.6147 73.6141 43.2044 73.8558 44.0965 74.0377C46.3182 74.4813 48.3391 73.441 48.5291 71.7503C48.6942 70.171 48.1213 69.3386 45.9532 68.0377V68.0359H45.9532ZM80.46 66.1095C79.6883 66.1095 79.0907 66.4227 78.6998 67.0384L78.3874 67.5237V66.2587H77.0518V73.8548H78.3864V71.4263C78.3864 69.2065 78.4132 68.9459 78.7247 68.3392C79.1523 67.5069 79.8881 67.0902 80.5992 67.29L81.0766 67.4292V66.1096L80.46 66.1095ZM35.3317 67.9921V63.1527H33.9852V73.8717H39.648V72.6058H35.3318V67.9921H35.3317ZM66.4721 69.5008L65.3622 72.3889L64.295 69.4848L63.211 66.2666H61.8327C62.7258 68.7987 63.6973 71.3745 64.677 73.8717C65.1017 73.8816 65.5273 73.8717 65.9519 73.8717L67.4507 70.1085L68.9773 66.2676H67.6596C67.6596 66.2676 67.0777 67.7932 66.4712 69.5018L66.4721 69.5008ZM38.4346 60.2318C38.6514 60.2318 38.8324 60.1623 38.9816 60.0131C39.1287 59.8658 39.2063 59.6928 39.2063 59.476C39.2063 59.2592 39.1287 59.0782 38.9816 58.9389C38.8324 58.7998 38.6603 58.73 38.4445 58.73C38.2258 58.73 38.0447 58.7998 37.8975 58.9469C37.7484 59.0941 37.6807 59.2752 37.6807 59.484C37.6807 59.7028 37.7504 59.8837 37.8975 60.0211C38.0368 60.1602 38.2178 60.2299 38.4346 60.2299V60.2318ZM37.9573 58.9987C38.0865 58.8694 38.2437 58.8097 38.4446 58.8097C38.6335 58.8097 38.7907 58.8694 38.922 58.9987C39.0513 59.1279 39.1209 59.2851 39.1209 59.476C39.1209 59.6669 39.0513 59.8321 38.922 59.9613C38.7908 60.0905 38.6335 60.1522 38.4446 60.1522C38.2526 60.1522 38.0965 60.0926 37.9672 59.9613C37.8379 59.8321 37.7683 59.6669 37.7683 59.476C37.7683 59.2851 37.828 59.128 37.9573 58.9987ZM38.2784 59.5457H38.3659C38.4277 59.5457 38.4883 59.6053 38.54 59.7187L38.6445 59.9533H38.8086L38.6793 59.6927C38.6266 59.5884 38.5749 59.5277 38.5142 59.5107C38.5908 59.4928 38.6514 59.467 38.6952 59.4152C38.7389 59.3705 38.7548 59.3098 38.7548 59.2412C38.7548 59.1616 38.73 59.102 38.6773 59.0582C38.6176 59.0085 38.5221 58.9817 38.3988 58.9817H38.1224V59.9533H38.2616V59.5456L38.2784 59.5457ZM38.2784 59.0941H38.3998C38.4873 59.0941 38.549 59.112 38.5828 59.1378C38.6157 59.1637 38.6246 59.1976 38.6246 59.2592C38.6246 59.3716 38.5549 59.4243 38.4257 59.4243H38.2766V59.0941H38.2784ZM16.035 59.4591C16.035 59.121 16.0251 58.8694 16.0171 58.7212H16.0251C16.0598 58.8961 16.1026 59.0265 16.1374 59.113L17.4302 62.0011H17.6471L18.9399 59.0872C18.9748 59.0077 19.0096 58.8883 19.0524 58.7222H19.0623C19.0364 59.0106 19.0275 59.2612 19.0275 59.4611V62.0101H19.47V58.2209H18.915L17.7266 60.8564C17.6828 60.9608 17.6222 61.117 17.5446 61.3239H17.5266C17.5008 61.2214 17.4402 61.0653 17.3537 60.8743L16.192 58.2119H15.6023V62.001H16.028V59.461L16.035 59.4591ZM20.4397 59.4662H20.8217V61.8261H20.4397V59.4662ZM20.6307 58.6009C20.7103 58.6009 20.7779 58.5739 20.8296 58.5213C20.8823 58.4696 20.9172 58.402 20.9172 58.3224C20.9172 58.2448 20.8912 58.1752 20.8306 58.1235C20.7769 58.0708 20.7083 58.0439 20.6297 58.0439C20.5522 58.0439 20.4826 58.0708 20.4308 58.1235C20.3782 58.1752 20.3433 58.2448 20.3433 58.3224C20.3433 58.409 20.3702 58.4696 20.4308 58.5213C20.4906 58.5739 20.5522 58.6009 20.6297 58.6009H20.6307ZM23.5447 61.8779V61.4621C23.3358 61.6182 23.111 61.6959 22.8783 61.6959C22.5999 61.6959 22.3741 61.6004 22.209 61.4175C22.0449 61.2365 21.9574 60.9848 21.9574 60.6715C21.9574 60.3434 22.0449 60.0827 22.2259 59.8838C22.3999 59.6929 22.6258 59.5974 22.9023 59.5974C23.128 59.5974 23.3447 59.6671 23.5447 59.8064V59.3638C23.3628 59.2683 23.1549 59.2245 22.9201 59.2245C22.4865 59.2245 22.1484 59.3638 21.8958 59.6324C21.6452 59.9009 21.5159 60.2659 21.5159 60.7065C21.5159 61.0983 21.6282 61.4275 21.862 61.6791C22.1057 61.9377 22.417 62.069 22.7989 62.069C23.0941 62.0608 23.3358 61.9991 23.5447 61.8779ZM24.6376 60.6198C24.6376 60.3085 24.7072 60.0569 24.8365 59.8837C24.9579 59.7277 25.105 59.6491 25.2791 59.6491C25.4263 59.6491 25.5307 59.6759 25.6072 59.7366V59.2851C25.5476 59.2592 25.461 59.2503 25.3487 59.2503C25.1925 59.2503 25.0534 59.3029 24.931 59.3995C24.8017 59.5018 24.6983 59.658 24.6376 59.8569H24.6277V59.3029H24.1951V62.0081H24.6287V60.6198H24.6376ZM27.1269 62.0618C27.5347 62.0618 27.8629 61.9305 28.1065 61.67C28.3491 61.4113 28.4704 61.0633 28.4704 60.6296C28.4704 60.1871 28.3591 59.849 28.1324 59.5972C27.9076 59.3458 27.5953 59.2243 27.1875 59.2243C26.7797 59.2243 26.4515 59.3457 26.2079 59.5804C25.9473 59.8391 25.8101 60.204 25.8101 60.6725C25.8101 61.0802 25.9215 61.4184 26.1562 61.67C26.3988 61.9305 26.7201 62.0608 27.1269 62.0608V62.0618ZM26.5103 59.8579C26.6754 59.6839 26.8923 59.5973 27.1607 59.5973C27.4393 59.5973 27.6481 59.6839 27.8032 59.8579C27.9593 60.0399 28.037 60.2996 28.037 60.6466C28.037 60.9767 27.9673 61.2363 27.8201 61.4104C27.673 61.5924 27.4561 61.6888 27.1696 61.6888C26.8912 61.6888 26.6754 61.5923 26.5103 61.4104C26.3462 61.2274 26.2676 60.9767 26.2676 60.6466C26.2508 60.3184 26.3373 60.0499 26.5103 59.8579ZM30.3691 61.8261C30.5341 61.679 30.6217 61.498 30.6217 61.2711C30.6217 61.0722 30.552 60.9071 30.4228 60.7768C30.3173 60.6725 30.1543 60.5779 29.9186 60.4824C29.7097 60.395 29.5804 60.3173 29.5108 60.2567C29.4412 60.1871 29.3984 60.1007 29.3984 59.9782C29.3984 59.8659 29.4422 59.7794 29.5278 59.7097C29.6153 59.6402 29.7267 59.6064 29.8759 59.6064C30.1096 59.6064 30.3094 59.668 30.4924 59.7983V59.3647C30.3174 59.2773 30.1274 59.2355 29.9106 59.2355C29.6322 59.2355 29.3974 59.3121 29.2243 59.4602C29.0423 59.6075 28.9558 59.7984 28.9558 60.0231C28.9558 60.222 29.0155 60.3871 29.1288 60.5084C29.2243 60.6118 29.3875 60.7173 29.6141 60.8117C29.831 60.9072 29.9782 60.9937 30.0567 61.0632C30.1342 61.1329 30.169 61.2194 30.169 61.3219C30.169 61.5744 29.9961 61.7048 29.6579 61.7048C29.3973 61.7048 29.1637 61.6193 28.9547 61.4463V61.9135C29.1437 62.0271 29.3705 62.0787 29.6211 62.0787C29.9423 62.0618 30.1939 61.9833 30.3669 61.8271L30.3691 61.8261ZM32.4337 59.2244C32.0259 59.2244 31.6977 59.3458 31.4541 59.5804C31.1955 59.8392 31.0563 60.2041 31.0563 60.6725C31.0563 61.0803 31.1687 61.4185 31.4024 61.6701C31.6461 61.9306 31.9663 62.0609 32.3741 62.0609C32.7917 62.0609 33.11 61.9296 33.3536 61.669C33.5973 61.4104 33.7186 61.0624 33.7186 60.6287C33.7186 60.1861 33.6052 59.8481 33.3804 59.5964C33.1458 59.3448 32.8334 59.2234 32.4356 59.2234L32.4337 59.2244ZM33.275 60.6466C33.275 60.9767 33.2054 61.2364 33.0583 61.4104C32.911 61.5924 32.6942 61.6888 32.4078 61.6888C32.1292 61.6888 31.9135 61.5923 31.7483 61.4104C31.5843 61.2274 31.5057 60.9767 31.5057 60.6466C31.5057 60.2985 31.5923 60.0301 31.7663 59.849C31.9303 59.6759 32.1473 59.5884 32.4167 59.5884C32.6852 59.5884 32.9011 59.6758 33.0572 59.849C33.1964 60.0399 33.274 60.2995 33.274 60.6466H33.275ZM34.4467 62.0001H34.8793V59.6581H35.5127V59.294H34.8792V58.8763C34.8792 58.4965 35.0263 58.3056 35.3307 58.3056C35.4332 58.3056 35.5376 58.3314 35.6152 58.3752V57.9844C35.5376 57.9496 35.4332 57.9417 35.3028 57.9417C35.0691 57.9417 34.8782 58.0113 34.722 58.1584C34.54 58.3315 34.4436 58.5562 34.4436 58.8607V59.3042H33.986V59.6682H34.4436V62.0014L34.4467 62.0001ZM36.2238 61.2622C36.2238 61.7913 36.4576 62.0608 36.9349 62.0608C37.108 62.0608 37.2382 62.033 37.3426 61.9713V61.5994C37.2631 61.6591 37.1686 61.687 37.0642 61.687C36.9171 61.687 36.8136 61.652 36.7529 61.5735C36.6912 61.496 36.6565 61.3646 36.6565 61.1836V59.6571H37.3426V59.293H36.6565V58.4955C36.5073 58.5472 36.3611 58.591 36.2228 58.6347V59.293H35.7554V59.657H36.2228V61.2612L36.2238 61.2622ZM82.7673 66.2487C82.6201 66.1095 82.4461 66.0399 82.2303 66.0399C82.0116 66.0399 81.8305 66.1095 81.6833 66.2587C81.5361 66.4049 81.4664 66.5868 81.4664 66.7957C81.4664 67.0126 81.5361 67.1936 81.6822 67.3327C81.8295 67.472 82.0104 67.5417 82.2292 67.5417C82.445 67.5417 82.627 67.472 82.7763 67.3248C82.9225 67.1756 83 67.0036 83 66.7878C82.992 66.569 82.9135 66.3879 82.7663 66.2488L82.7673 66.2487ZM82.6977 67.2731C82.5684 67.4023 82.4113 67.462 82.2203 67.462C82.0314 67.462 81.8743 67.4023 81.743 67.2731C81.6138 67.1418 81.5441 66.9777 81.5441 66.7857C81.5441 66.5967 81.6037 66.4397 81.735 66.3084C81.8643 66.1792 82.0205 66.1194 82.2203 66.1194C82.4093 66.1194 82.5665 66.1792 82.6977 66.3084C82.827 66.4397 82.8966 66.5967 82.8966 66.7857C82.8966 66.9867 82.8369 67.1418 82.6977 67.2731ZM82.3078 66.8305C82.3854 66.8126 82.4471 66.7778 82.4899 66.7351C82.5337 66.6903 82.5496 66.6295 82.5496 66.5601C82.5496 66.4825 82.5247 66.4208 82.4721 66.3781C82.4124 66.3283 82.3159 66.3014 82.1937 66.3014H81.9172V67.2721H82.0565V66.8643H82.1429C82.2027 66.8643 82.2623 66.9239 82.3159 67.0373L82.4193 67.271H82.5845L82.4553 67.0104C82.4105 66.897 82.3587 66.8453 82.3061 66.8283L82.3078 66.8305ZM82.2123 66.743H82.0632V66.4149H82.1856C82.2721 66.4149 82.3327 66.4307 82.3676 66.4576C82.4024 66.4835 82.4103 66.5173 82.4103 66.579C82.4103 66.6914 82.3407 66.7431 82.2115 66.7431L82.2123 66.743ZM58.0168 59.1817H58.1381V58.21H58.4592V58.0887H57.6955V58.21H58.0168V59.1817H58.0168ZM58.7527 58.4517C58.7527 58.3571 58.7527 58.2796 58.7457 58.2359C58.7537 58.2876 58.7716 58.3225 58.7796 58.3483L59.1525 59.1817H59.2122L59.5861 58.3403C59.5961 58.3145 59.6041 58.2806 59.6209 58.2359C59.6129 58.3225 59.6129 58.3919 59.6129 58.4447V59.1807H59.7423V58.0887H59.5861L59.248 58.8425C59.2401 58.8695 59.2131 58.9221 59.1963 58.9818H59.1863C59.1793 58.9469 59.1615 58.9122 59.1366 58.8526L58.7985 58.0888H58.6234V59.1827H58.7457V58.4528L58.7527 58.4517Z" fill="#231F1F"/>
<defs>
<filter id="filter0_d_1261_2300" x="0" y="0" width="98" height="98" filterUnits="userSpaceOnUse" color-interpolation-filters="sRGB">
<feFlood flood-opacity="0" result="BackgroundImageFix"/>
<feColorMatrix in="SourceAlpha" type="matrix" values="0 0 0 0 0 0 0 0 0 0 0 0 0 0 0 0 0 0 127 0" result="hardAlpha"/>
<feOffset/>
<feGaussianBlur stdDeviation="2"/>
<feComposite in2="hardAlpha" operator="out"/>
<feColorMatrix type="matrix" values="0 0 0 0 0 0 0 0 0 0 0 0 0 0 0 0 0 0 0.25 0"/>
<feBlend mode="normal" in2="BackgroundImageFix" result="effect1_dropShadow_1261_2300"/>
<feBlend mode="normal" in="SourceGraphic" in2="effect1_dropShadow_1261_2300" result="shape"/>
</filter>
<linearGradient id="paint0_linear_1261_2300" x1="45.237" y1="55.4288" x2="47.9441" y2="53.8291" gradientUnits="userSpaceOnUse">
<stop stop-color="#909CA9"/>
<stop offset="1" stop-color="#EDEDEE"/>
</linearGradient>
<linearGradient id="paint1_linear_1261_2300" x1="45.2987" y1="25.2715" x2="47.4769" y2="25.2715" gradientUnits="userSpaceOnUse">
<stop stop-color="#939FAB"/>
<stop offset="1" stop-color="#DCDEE1"/>
</linearGradient>
<radialGradient id="paint2_radial_1261_2300" cx="0" cy="0" r="1" gradientTransform="matrix(-2.77722 -0.417168 -0.843711 5.55443 56.2904 35.2618)" gradientUnits="userSpaceOnUse">
<stop stop-color="#EE352C"/>
<stop offset="1" stop-color="#A91D22"/>
</radialGradient>
</defs>
</svg>
