<svg width="58" height="58" viewBox="0 0 58 58" fill="none" xmlns="http://www.w3.org/2000/svg">
<g filter="url(#filter0_d_1274_937)">
<rect x="4" y="4" width="50" height="50" rx="25" fill="white"/>
</g>
<g clip-path="url(#clip0_1274_937)">
<path d="M35.5852 25.0391H43.075V26.463H40.1039V33.9542H38.6182V26.463H35.5852V25.0391ZM23.2672 25.0391V26.463H17.2636V28.7537H22.0917V30.1776H17.2636V32.5303H23.2672V33.9543H15.778V26.463H15.7773V25.0391H23.2672ZM27.0071 25.0428H25.0629L32.0265 33.9579H33.9764L30.4941 29.5034L33.9708 25.0495L32.0265 25.0527L29.5208 28.2583L27.0071 25.0428ZM29.0021 31.4109L28.0285 30.164L25.0574 33.9648H27.0071L29.0021 31.4109Z" fill="black"/>
<path fill-rule="evenodd" clip-rule="evenodd" d="M15.83 33.9543L8.85697 25.0354H7V33.9505H8.48557V26.9411L13.9637 33.9543H15.83Z" fill="black"/>
<path d="M43.4088 33.8998C43.3571 33.9007 43.3058 33.8908 43.2579 33.8708C43.21 33.8508 43.1665 33.821 43.13 33.7833C43.0525 33.7056 43.0142 33.6117 43.0152 33.5003C43.0142 33.392 43.0525 33.299 43.13 33.2214C43.1665 33.1837 43.21 33.1539 43.2579 33.1339C43.3058 33.1139 43.3571 33.104 43.4088 33.1049C43.5135 33.1049 43.605 33.1437 43.6825 33.2214C43.7611 33.2989 43.8003 33.392 43.8014 33.5003C43.8012 33.5713 43.782 33.6409 43.7459 33.7015C43.7106 33.7613 43.6611 33.8109 43.602 33.8456C43.5436 33.8815 43.4768 33.9003 43.4088 33.8998ZM45.9444 30.144H46.6027V32.7565C46.6017 32.9965 46.5513 33.2019 46.4528 33.3746C46.3531 33.5473 46.2152 33.679 46.038 33.772C45.8619 33.8639 45.6555 33.911 45.421 33.911C45.2065 33.911 45.0143 33.8711 44.8432 33.7934C44.6721 33.7159 44.5362 33.5994 44.4366 33.4461C44.3358 33.2929 44.2865 33.1018 44.2865 32.873H44.9459C44.9469 32.973 44.969 33.0599 45.0113 33.1324C45.0529 33.2042 45.1137 33.262 45.1864 33.2989C45.2618 33.3378 45.3485 33.3573 45.4461 33.3573C45.5518 33.3573 45.6424 33.3348 45.7159 33.2887C45.7893 33.2437 45.8457 33.1763 45.885 33.0865C45.9232 32.9977 45.9434 32.8873 45.9444 32.7565V30.144ZM49.3114 31.1658C49.2953 31.0074 49.2248 30.8837 49.1021 30.7959C48.9782 30.7071 48.8182 30.663 48.6219 30.663C48.484 30.663 48.3653 30.6845 48.2666 30.7264C48.168 30.7694 48.0914 30.8265 48.0391 30.8991C47.9868 30.9716 47.9606 31.0544 47.9585 31.1473C47.9585 31.225 47.9766 31.2923 48.0119 31.3485C48.0471 31.4059 48.0944 31.4539 48.1558 31.4927C48.219 31.5336 48.2866 31.5669 48.3572 31.5918C48.4316 31.6183 48.5062 31.6408 48.5806 31.6593L48.9238 31.746C49.0606 31.7781 49.1944 31.8225 49.3235 31.8789C49.4477 31.9318 49.5639 32.0027 49.6687 32.0894C49.7693 32.1728 49.8517 32.2772 49.9103 32.3958C49.9697 32.5154 49.9999 32.6554 49.9999 32.8168C49.9999 33.0344 49.9456 33.2254 49.8358 33.391C49.7261 33.5555 49.5681 33.6842 49.3607 33.7771C49.1543 33.8691 48.9047 33.9161 48.6108 33.9161C48.327 33.9161 48.0793 33.8711 47.871 33.7812C47.6617 33.6924 47.4985 33.5615 47.3807 33.39C47.263 33.2183 47.1996 33.0089 47.1905 32.7627H47.8428C47.8519 32.8913 47.8922 32.9987 47.9606 33.0855C48.03 33.1712 48.1206 33.2346 48.2314 33.2776C48.3431 33.3194 48.4679 33.3409 48.6058 33.3409C48.7498 33.3409 48.8766 33.3184 48.9863 33.2745C49.095 33.2306 49.1805 33.1692 49.242 33.0895C49.3044 33.0108 49.3356 32.918 49.3366 32.8116C49.3356 32.7146 49.3073 32.6339 49.253 32.5705C49.1977 32.5072 49.1212 32.454 49.0235 32.4112C48.9118 32.3637 48.7967 32.3251 48.6793 32.2957L48.2626 32.1874C47.9616 32.1087 47.723 31.9892 47.5488 31.8288C47.3738 31.6684 47.2871 31.4559 47.2871 31.1891C47.2871 30.9706 47.3455 30.7785 47.4634 30.614C47.58 30.4496 47.7401 30.3217 47.9425 30.2309C48.1458 30.139 48.3753 30.094 48.6309 30.094C48.8907 30.094 49.1181 30.139 49.3144 30.2309C49.5107 30.3219 49.6648 30.4485 49.7764 30.61C49.8882 30.7714 49.9466 30.9562 49.9496 31.1658H49.3114Z" fill="black"/>
</g>
<defs>
<filter id="filter0_d_1274_937" x="0" y="0" width="58" height="58" filterUnits="userSpaceOnUse" color-interpolation-filters="sRGB">
<feFlood flood-opacity="0" result="BackgroundImageFix"/>
<feColorMatrix in="SourceAlpha" type="matrix" values="0 0 0 0 0 0 0 0 0 0 0 0 0 0 0 0 0 0 127 0" result="hardAlpha"/>
<feOffset/>
<feGaussianBlur stdDeviation="2"/>
<feComposite in2="hardAlpha" operator="out"/>
<feColorMatrix type="matrix" values="0 0 0 0 0 0 0 0 0 0 0 0 0 0 0 0 0 0 0.25 0"/>
<feBlend mode="normal" in2="BackgroundImageFix" result="effect1_dropShadow_1274_937"/>
<feBlend mode="normal" in="SourceGraphic" in2="effect1_dropShadow_1274_937" result="shape"/>
</filter>
<clipPath id="clip0_1274_937">
<rect width="43" height="9" fill="white" transform="translate(7 25)"/>
</clipPath>
</defs>
</svg>
