<svg width="98" height="98" viewBox="0 0 98 98" fill="none" xmlns="http://www.w3.org/2000/svg">
<g filter="url(#filter0_d_1261_2253)">
<rect x="4" y="4" width="90" height="90" rx="45" fill="white"/>
</g>
<g clip-path="url(#clip0_1261_2253)">
<path d="M49.2476 20.0166C34.3197 20.0166 35.2517 26.4935 35.2517 26.4935L35.2683 33.2038H49.5138V35.2185H29.6102C29.6102 35.2185 20.0579 34.1345 20.0579 49.2044C20.0579 64.2747 28.3954 63.7402 28.3954 63.7402H33.3712V56.747C33.3712 56.747 33.103 48.4052 41.5757 48.4052H55.7046C55.7046 48.4052 63.6427 48.5336 63.6427 40.7294V27.8258C63.6427 27.8258 64.8483 20.0166 49.2476 20.0166ZM41.3926 24.5291C41.7293 24.5288 42.0627 24.595 42.3737 24.7237C42.6848 24.8525 42.9674 25.0413 43.2055 25.2795C43.4435 25.5176 43.6322 25.8004 43.7609 26.1116C43.8896 26.4228 43.9557 26.7564 43.9554 27.0932C43.9557 27.43 43.8896 27.7636 43.7609 28.0748C43.6322 28.386 43.4435 28.6688 43.2055 28.9069C42.9674 29.1451 42.6848 29.3339 42.3737 29.4627C42.0627 29.5914 41.7293 29.6576 41.3926 29.6573C41.056 29.6576 40.7226 29.5914 40.4116 29.4627C40.1005 29.3339 39.8179 29.1451 39.5798 28.9069C39.3418 28.6688 39.153 28.386 39.0244 28.0748C38.8957 27.7636 38.8296 27.43 38.8299 27.0932C38.8296 26.7564 38.8957 26.4228 39.0244 26.1116C39.153 25.8004 39.3418 25.5176 39.5798 25.2795C39.8179 25.0413 40.1005 24.8525 40.4116 24.7237C40.7226 24.595 41.056 24.5288 41.3926 24.5291Z" fill="url(#paint0_linear_1261_2253)"/>
<path d="M49.6713 78.5439C64.5993 78.5439 63.6672 72.0669 63.6672 72.0669L63.6506 65.3568H49.4049V63.3422H69.3084C69.3084 63.3422 78.8608 64.4261 78.8608 49.3558C78.8608 34.2858 70.5233 34.8202 70.5233 34.8202H65.5474V41.8132C65.5474 41.8132 65.8157 50.155 57.343 50.155H43.214C43.214 50.155 35.276 50.0267 35.276 57.831V70.7349C35.276 70.7349 34.0706 78.5439 49.6711 78.5439H49.6713ZM57.5263 74.0318C57.1896 74.0321 56.8563 73.966 56.5452 73.8372C56.2341 73.7085 55.9515 73.5196 55.7135 73.2815C55.4754 73.0433 55.2867 72.7605 55.158 72.4493C55.0293 72.1381 54.9632 71.8045 54.9635 71.4677C54.9632 71.1309 55.0292 70.7973 55.1579 70.4861C55.2866 70.1748 55.4753 69.892 55.7134 69.6538C55.9514 69.4157 56.2341 69.2268 56.5451 69.098C56.8562 68.9693 57.1896 68.9031 57.5263 68.9034C57.8629 68.9031 58.1963 68.9692 58.5073 69.098C58.8184 69.2267 59.101 69.4156 59.3391 69.6538C59.5771 69.8919 59.7659 70.1747 59.8945 70.4859C60.0232 70.7971 60.0893 71.1307 60.089 71.4675C60.0893 71.8043 60.0232 72.1378 59.8945 72.4491C59.7659 72.7603 59.5771 73.0431 59.3391 73.2812C59.101 73.5194 58.8184 73.7082 58.5073 73.837C58.1963 73.9657 57.8629 74.0321 57.5263 74.0318Z" fill="url(#paint1_linear_1261_2253)"/>
</g>
<defs>
<filter id="filter0_d_1261_2253" x="0" y="0" width="98" height="98" filterUnits="userSpaceOnUse" color-interpolation-filters="sRGB">
<feFlood flood-opacity="0" result="BackgroundImageFix"/>
<feColorMatrix in="SourceAlpha" type="matrix" values="0 0 0 0 0 0 0 0 0 0 0 0 0 0 0 0 0 0 127 0" result="hardAlpha"/>
<feOffset/>
<feGaussianBlur stdDeviation="2"/>
<feComposite in2="hardAlpha" operator="out"/>
<feColorMatrix type="matrix" values="0 0 0 0 0 0 0 0 0 0 0 0 0 0 0 0 0 0 0.25 0"/>
<feBlend mode="normal" in2="BackgroundImageFix" result="effect1_dropShadow_1261_2253"/>
<feBlend mode="normal" in="SourceGraphic" in2="effect1_dropShadow_1261_2253" result="shape"/>
</filter>
<linearGradient id="paint0_linear_1261_2253" x1="585.154" y1="546.434" x2="3500.73" y2="3431.45" gradientUnits="userSpaceOnUse">
<stop stop-color="#387EB8"/>
<stop offset="1" stop-color="#366994"/>
</linearGradient>
<linearGradient id="paint1_linear_1261_2253" x1="869.358" y1="934.655" x2="4000.28" y2="3892.9" gradientUnits="userSpaceOnUse">
<stop stop-color="#FFE052"/>
<stop offset="1" stop-color="#FFC331"/>
</linearGradient>
<clipPath id="clip0_1261_2253">
<rect width="58.9509" height="58.7451" fill="white" transform="translate(20.0244 20)"/>
</clipPath>
</defs>
</svg>
