<svg width="58" height="58" viewBox="0 0 58 58" fill="none" xmlns="http://www.w3.org/2000/svg">
<g filter="url(#filter0_d_1274_938)">
<rect x="4" y="4" width="50" height="50" rx="25" fill="white"/>
</g>
<path d="M46.6675 28.8853C46.6675 26.5225 43.7085 24.2833 39.172 22.8947C40.2189 18.2709 39.7536 14.5922 37.7034 13.4144C37.2308 13.1381 36.6783 13.0073 36.0749 13.0073V14.6285C36.4093 14.6285 36.6783 14.694 36.9037 14.8175C37.8924 15.3846 38.3213 17.5439 37.9869 20.3211C37.9069 21.0045 37.7761 21.7242 37.6161 22.4585C36.1912 22.1095 34.6354 21.8405 32.9996 21.6661C32.0181 20.3211 31.0003 19.0997 29.9752 18.031C32.3453 15.8281 34.5699 14.6213 36.0821 14.6213V13C34.0828 13 31.4656 14.425 28.8192 16.8968C26.1729 14.4395 23.5556 13.0291 21.5563 13.0291V14.6503C23.0612 14.6503 25.2932 15.8499 27.6633 18.0382C26.6454 19.107 25.6276 20.3211 24.6607 21.6661C23.0176 21.8405 21.4618 22.1095 20.0368 22.4658C19.8696 21.7388 19.746 21.0335 19.6588 20.3574C19.3171 17.5802 19.7388 15.421 20.7202 14.8466C20.9383 14.7158 21.2219 14.6576 21.5563 14.6576V13.0364C20.9456 13.0364 20.3931 13.1672 19.9132 13.4435C17.8703 14.6213 17.4123 18.2927 18.4665 22.902C13.9444 24.2979 11 26.5298 11 28.8853C11 31.2482 13.959 33.4874 18.4956 34.876C17.4486 39.4998 17.9139 43.1785 19.9641 44.3563C20.4367 44.6326 20.9892 44.7634 21.5999 44.7634C23.5992 44.7634 26.2165 43.3385 28.8628 40.8666C31.5092 43.3239 34.1264 44.7343 36.1257 44.7343C36.7364 44.7343 37.289 44.6035 37.7688 44.3272C39.8117 43.1494 40.2697 39.478 39.2156 34.8687C43.7231 33.4801 46.6675 31.2409 46.6675 28.8853ZM37.2017 24.0361C36.9327 24.974 36.5983 25.9409 36.2203 26.9079C35.9222 26.3262 35.6096 25.7446 35.2679 25.163C34.9334 24.5814 34.5772 24.0143 34.221 23.4618C35.2533 23.6145 36.2493 23.8035 37.2017 24.0361ZM33.872 31.7789C33.3049 32.7603 32.7233 33.6909 32.1199 34.5561C31.0366 34.6506 29.9388 34.7015 28.8338 34.7015C27.736 34.7015 26.6382 34.6506 25.5622 34.5634C24.9587 33.6982 24.3699 32.7749 23.8028 31.8007C23.2503 30.8483 22.7486 29.8814 22.2906 28.9072C22.7413 27.933 23.2503 26.9587 23.7955 26.0064C24.3626 25.0249 24.9442 24.0943 25.5476 23.2291C26.6309 23.1346 27.7287 23.0837 28.8338 23.0837C29.9316 23.0837 31.0293 23.1346 32.1053 23.2219C32.7088 24.087 33.2976 25.0103 33.8647 25.9845C34.4173 26.9369 34.9189 27.9039 35.3769 28.8781C34.9189 29.8523 34.4173 30.8265 33.872 31.7789ZM36.2203 30.8338C36.6128 31.808 36.9473 32.7822 37.2235 33.7273C36.2712 33.9599 35.2679 34.1562 34.2282 34.3089C34.5845 33.7491 34.9407 33.1747 35.2751 32.5859C35.6096 32.0043 35.9222 31.4154 36.2203 30.8338ZM28.8483 38.591C28.1722 37.8931 27.496 37.1152 26.8272 36.2646C27.4815 36.2937 28.1504 36.3155 28.8265 36.3155C29.5099 36.3155 30.186 36.3009 30.8476 36.2646C30.1933 37.1152 29.5172 37.8931 28.8483 38.591ZM23.4393 34.3089C22.4069 34.1562 21.4109 33.9672 20.4585 33.7346C20.7275 32.7967 21.0619 31.8298 21.44 30.8628C21.7381 31.4444 22.0507 32.0261 22.3924 32.6077C22.7341 33.1893 23.083 33.7564 23.4393 34.3089ZM28.8119 19.1797C29.4881 19.8776 30.1642 20.6555 30.8331 21.5061C30.1787 21.477 29.5099 21.4552 28.8338 21.4552C28.1504 21.4552 27.4742 21.4698 26.8126 21.5061C27.467 20.6555 28.1431 19.8776 28.8119 19.1797ZM23.432 23.4618C23.0758 24.0216 22.7195 24.5959 22.3851 25.1848C22.0507 25.7664 21.7381 26.3481 21.44 26.9297C21.0474 25.9555 20.713 24.9813 20.4367 24.0361C21.3891 23.8108 22.3924 23.6145 23.432 23.4618ZM16.8525 32.5641C14.2789 31.4663 12.614 30.0268 12.614 28.8853C12.614 27.7439 14.2789 26.2972 16.8525 25.2066C17.4777 24.9376 18.1611 24.6977 18.8663 24.4723C19.2807 25.8973 19.826 27.3804 20.5021 28.8999C19.8333 30.4121 19.2953 31.8879 18.8881 33.3056C18.1684 33.0802 17.485 32.8331 16.8525 32.5641ZM20.7639 42.9531C19.7751 42.3861 19.3462 40.2268 19.6806 37.4496C19.7606 36.7662 19.8914 36.0465 20.0514 35.3122C21.4763 35.6612 23.0322 35.9301 24.6679 36.1046C25.6494 37.4496 26.6672 38.671 27.6923 39.7397C25.3223 41.9426 23.0976 43.1494 21.5854 43.1494C21.2582 43.1422 20.982 43.0767 20.7639 42.9531ZM38.0087 37.4133C38.3504 40.1905 37.9287 42.3497 36.9473 42.9241C36.7292 43.0549 36.4456 43.1131 36.1112 43.1131C34.6063 43.1131 32.3743 41.9135 30.0043 39.7252C31.0221 38.6565 32.0399 37.4423 33.0068 36.0974C34.6499 35.9229 36.2057 35.6539 37.6307 35.2976C37.7979 36.0319 37.9288 36.7371 38.0087 37.4133ZM40.8077 32.5641C40.1825 32.8331 39.4991 33.073 38.7939 33.2983C38.3795 31.8734 37.8342 30.3903 37.1581 28.8708C37.827 27.3586 38.365 25.8828 38.7721 24.4651C39.4918 24.6904 40.1752 24.9376 40.815 25.2066C43.3887 26.3044 45.0535 27.7439 45.0535 28.8853C45.0463 30.0268 43.3814 31.4735 40.8077 32.5641Z" fill="#61DAFB"/>
<path d="M28.8264 32.2079C30.6613 32.2079 32.1489 30.7204 32.1489 28.8855C32.1489 27.0505 30.6613 25.563 28.8264 25.563C26.9914 25.563 25.5039 27.0505 25.5039 28.8855C25.5039 30.7204 26.9914 32.2079 28.8264 32.2079Z" fill="#61DAFB"/>
<defs>
<filter id="filter0_d_1274_938" x="0" y="0" width="58" height="58" filterUnits="userSpaceOnUse" color-interpolation-filters="sRGB">
<feFlood flood-opacity="0" result="BackgroundImageFix"/>
<feColorMatrix in="SourceAlpha" type="matrix" values="0 0 0 0 0 0 0 0 0 0 0 0 0 0 0 0 0 0 127 0" result="hardAlpha"/>
<feOffset/>
<feGaussianBlur stdDeviation="2"/>
<feComposite in2="hardAlpha" operator="out"/>
<feColorMatrix type="matrix" values="0 0 0 0 0 0 0 0 0 0 0 0 0 0 0 0 0 0 0.25 0"/>
<feBlend mode="normal" in2="BackgroundImageFix" result="effect1_dropShadow_1274_938"/>
<feBlend mode="normal" in="SourceGraphic" in2="effect1_dropShadow_1274_938" result="shape"/>
</filter>
</defs>
</svg>
