<svg width="239" height="64" viewBox="0 0 239 64" fill="none" xmlns="http://www.w3.org/2000/svg">
<g filter="url(#filter0_d_1261_1511)">
<rect x="4" y="4" width="231" height="55.043" rx="10" fill="white"/>
</g>
<mask id="mask0_1261_1511" style="mask-type:luminance" maskUnits="userSpaceOnUse" x="27" y="16" width="204" height="35">
<path d="M27.4609 16.6328H230.461V50.4519H27.4609V16.6328Z" fill="white"/>
</mask>
<g mask="url(#mask0_1261_1511)">
<path d="M136.121 46.4803L138.661 32.9341C138.98 31.2344 139.218 29.7264 139.377 28.5598H140.464L140.067 31.1309H140.119C141.26 29.4081 142.851 28.2948 144.547 28.2948C146.96 28.2948 147.86 30.3622 147.86 32.4304C147.86 36.7251 144.918 41.5467 140.862 41.5467C139.616 41.5467 138.794 41.2554 138.317 40.9904H138.264L137.259 46.4756L136.121 46.4803ZM138.506 39.8262C139.089 40.2765 139.938 40.5416 140.972 40.5416C144.339 40.5416 146.672 35.7702 146.672 32.5068C146.672 30.9957 146.088 29.3254 144.206 29.3254C142.403 29.3254 140.044 31.6052 139.328 35.4495L138.506 39.8262Z" fill="black"/>
<path d="M156.635 41.284C156.608 40.5153 156.767 39.3225 156.953 37.8646H156.902C155.443 40.6745 153.826 41.549 152.156 41.549C150.225 41.549 149.054 39.9583 149.054 37.6785C149.054 33.3575 152.156 28.2941 157.089 28.2941C157.991 28.2941 158.998 28.4532 159.66 28.6649L158.308 35.5315C157.858 37.8909 157.699 39.9351 157.752 41.284H156.635ZM158.335 29.5132C158.043 29.4073 157.593 29.3278 156.797 29.3278C153.139 29.3278 150.276 33.4108 150.249 37.4134C150.222 39.0575 150.7 40.5416 152.423 40.5416C154.491 40.5416 156.826 37.4405 157.434 34.1525L158.335 29.5132Z" fill="black"/>
<path d="M160.744 41.284L162.362 32.7209C162.68 31.1039 162.866 29.6723 162.971 28.559H164.032C163.925 29.3811 163.82 30.2294 163.661 31.3163H163.714C164.509 29.6167 165.755 28.2941 167.345 28.2941C167.506 28.2956 167.665 28.3132 167.823 28.3466L167.61 29.5402C167.463 29.5059 167.311 29.4881 167.16 29.4869C165.489 29.4869 163.633 32.0055 163.103 34.8176L161.91 41.2863L160.744 41.284Z" fill="black"/>
<path d="M172.647 25.7491L172.091 28.5597H175.086L174.875 29.5409H171.879L170.473 37.1229C170.315 37.9727 170.209 38.634 170.209 39.3232C170.209 40.0656 170.553 40.516 171.349 40.516C171.773 40.516 172.038 40.4897 172.276 40.4101L172.353 41.3372C171.949 41.4584 171.529 41.5208 171.107 41.5227C169.596 41.5227 169.013 40.5183 169.013 39.4552C169.013 38.7654 169.09 38.1025 169.304 37.1221L170.736 29.5401H168.907L169.092 28.5589H170.946L171.37 26.2791L172.647 25.7491Z" fill="black"/>
<path d="M174.794 41.284L176.494 32.2967C176.751 31.0616 176.946 29.814 177.077 28.559H178.137L177.79 31.1572H177.844C178.957 29.303 180.548 28.2941 182.27 28.2941C183.517 28.2941 185.107 29.0891 185.107 31.5018C185.107 32.1376 185.002 32.7742 184.868 33.4633L183.411 41.284H182.27L183.755 33.4633C183.874 32.8521 183.935 32.2315 183.941 31.6092C183.941 30.2834 183.411 29.3293 181.846 29.3293C180.147 29.3293 177.764 31.45 177.211 34.5256L175.965 41.2856L174.794 41.284Z" fill="black"/>
<path d="M194.439 40.5686C193.776 40.9927 192.556 41.5227 190.966 41.5227C187.996 41.5227 186.963 39.1896 186.963 36.7506C186.963 33.0925 189.508 28.2941 193.166 28.2941C195.261 28.2941 196.136 29.6723 196.136 31.0753C196.136 34.3093 192.427 35.2109 188.262 35.1846C188.129 35.7679 188.107 37.4382 188.368 38.339C188.818 39.7976 189.8 40.4867 191.149 40.4867C192.554 40.4867 193.509 39.983 194.092 39.6369L194.439 40.5686ZM192.954 29.3278C190.992 29.3278 189.216 31.4485 188.448 34.1795C191.761 34.2058 194.943 33.6487 194.943 31.1302C194.943 29.9373 194.147 29.3278 192.954 29.3278Z" fill="black"/>
<path d="M196.771 41.284L198.389 32.7209C198.708 31.1039 198.893 29.6723 198.999 28.559H200.059C199.953 29.3811 199.847 30.2294 199.688 31.3163H199.741C200.536 29.6167 201.782 28.2941 203.372 28.2941C203.533 28.2956 203.693 28.3132 203.85 28.3466L203.637 29.5402C203.49 29.5059 203.338 29.4881 203.187 29.4869C201.516 29.4869 199.661 32.0055 199.131 34.8176L197.937 41.2863L196.771 41.284Z" fill="black"/>
<path d="M203.32 39.7997C203.99 40.2394 204.772 40.4784 205.573 40.4889C207.244 40.4889 208.355 39.296 208.355 37.8621C208.355 36.5889 207.825 35.8202 206.632 35.0515C205.386 34.2295 204.696 33.09 204.696 31.9234C204.696 29.9348 206.287 28.2924 208.514 28.2924C209.388 28.2924 210.264 28.5836 210.635 28.8756L210.21 29.8576C209.812 29.6189 209.123 29.3276 208.38 29.3276C206.843 29.3276 205.836 30.3883 205.836 31.7133C205.836 32.9069 206.498 33.5674 207.559 34.2628C208.778 35.0848 209.52 36.2506 209.52 37.5237C209.52 40.0949 207.638 41.5264 205.465 41.5264C204.324 41.5264 203.317 41.1023 202.893 40.7577L203.32 39.7997Z" fill="black"/>
<path d="M50.4969 22.3622C50.4869 22.2982 50.4558 22.2393 50.4084 22.1951C50.3611 22.1508 50.3003 22.1237 50.2358 22.1181C50.1276 22.1095 48.0092 22.0771 48.0092 22.0771C48.0092 22.0771 46.2377 20.3581 46.0631 20.1866C45.8885 20.0151 45.5463 20.0653 45.4134 20.104L44.5234 20.3798C44.4136 20.0186 44.2712 19.6682 44.0977 19.333C43.4665 18.1301 42.5433 17.4927 41.4277 17.4912H41.4239C41.3466 17.4912 41.2693 17.4989 41.1921 17.5058C41.1597 17.4664 41.1264 17.4286 41.0909 17.3892C40.6057 16.8692 39.9815 16.6166 39.2367 16.6382C37.7928 16.6753 36.3581 17.7144 35.1939 19.5686C34.3734 20.8665 33.7553 22.5044 33.5753 23.766L30.7369 24.6451C29.9018 24.907 29.8755 24.9333 29.7658 25.7205C29.6831 26.3162 27.4976 43.2192 27.4976 43.2192L45.8167 46.3867L53.7563 44.4136C53.7563 44.4136 50.5201 22.5128 50.4969 22.3622ZM43.6056 20.6625L42.1841 21.1021C42.1733 20.3728 42.0867 19.3569 41.746 18.4793C42.84 18.6848 43.3785 19.9217 43.6056 20.6602V20.6625ZM41.2261 21.3988L38.1675 22.3437C38.4634 21.2118 39.0235 20.0847 39.7126 19.3469C40.0017 19.0245 40.3555 18.7668 40.7509 18.5905C41.1488 19.4218 41.2354 20.6008 41.2261 21.3965V21.3988ZM39.2622 17.5931C39.5677 17.5771 39.8706 17.6565 40.129 17.8203C39.7086 18.045 39.3297 18.34 39.0088 18.6925C38.0933 19.6744 37.3919 21.1995 37.1122 22.6705L34.6052 23.4484C35.0965 21.1323 37.0372 17.6573 39.2622 17.5931Z" fill="#95BF47"/>
<path d="M50.2354 22.1181C50.1273 22.1096 48.0089 22.0772 48.0089 22.0772C48.0089 22.0772 46.2374 20.3582 46.0628 20.1867C45.9951 20.1236 45.909 20.0838 45.8171 20.0731V46.3867L53.756 44.4136C53.756 44.4136 50.5198 22.5129 50.4966 22.3622C50.4866 22.2982 50.4555 22.2394 50.4081 22.1951C50.3608 22.1508 50.3 22.1237 50.2354 22.1181Z" fill="#5E8E3E"/>
<path d="M41.4169 26.2027L40.4944 29.6523C39.7831 29.3576 39.0154 29.2239 38.2462 29.2606C36.4593 29.3734 36.4392 30.5013 36.4593 30.7841C36.5566 32.3292 40.6157 32.6637 40.8436 36.2778C41.0237 39.1208 39.3356 41.0677 36.9035 41.2222C33.9856 41.4061 32.3794 39.6848 32.3794 39.6848L32.9975 37.0581C32.9975 37.0581 34.6129 38.271 35.9069 38.1876C36.7521 38.1343 37.055 37.4467 37.0241 36.9607C36.8966 34.9521 33.5916 35.0664 33.383 31.7598C33.2076 28.9786 35.0347 26.1572 39.0675 25.9022C40.6211 25.8056 41.4169 26.2027 41.4169 26.2027Z" fill="white"/>
<path d="M64.513 33.5638C63.593 33.0647 63.1224 32.6437 63.1224 32.065C63.1224 31.3288 63.7799 30.8559 64.806 30.8559C66.0003 30.8559 67.0673 31.355 67.0673 31.355L67.9024 28.7785C67.9024 28.7785 67.1298 28.1736 64.8521 28.1736C61.6848 28.1736 59.4876 29.9876 59.4876 32.5386C59.4876 33.9848 60.5136 35.0881 61.8826 35.8776C62.9865 36.5088 63.3814 36.9592 63.3814 37.6136C63.3814 38.2973 62.829 38.8497 61.8037 38.8497C60.2756 38.8497 58.8325 38.0609 58.8325 38.0609L57.9363 40.6374C57.9363 40.6374 59.2697 41.5313 61.5125 41.5313C64.7734 41.5313 67.1135 39.9274 67.1135 37.035C67.1166 35.4836 65.933 34.3789 64.513 33.5638Z" fill="black"/>
<path d="M77.5034 28.1442C75.8996 28.1442 74.6373 28.9068 73.6646 30.0633L73.6112 30.0378L75.0018 22.754H71.3793L67.8557 41.2957H71.4868L72.6957 34.9606C73.1694 32.5656 74.4056 31.0978 75.5621 31.0978C76.3771 31.0978 76.693 31.6502 76.693 32.4389C76.693 32.9774 76.6396 33.5147 76.5345 34.0428L75.1651 41.2949H78.7958L80.2152 33.801C80.3723 33.0211 80.4604 32.229 80.4788 31.4338C80.4749 29.3804 79.3961 28.1442 77.5034 28.1442Z" fill="black"/>
<path d="M88.6786 28.1442C84.3137 28.1442 81.4226 32.0912 81.4226 36.4825C81.4226 39.2962 83.1579 41.5575 86.419 41.5575C90.7051 41.5575 93.5969 37.7186 93.5969 33.2223C93.5952 30.6164 92.0704 28.1442 88.6786 28.1442ZM86.8909 38.767C85.655 38.767 85.1286 37.7155 85.1286 36.4006C85.1286 34.3232 86.2102 30.9316 88.1789 30.9316C89.4675 30.9316 89.8878 32.0356 89.8878 33.1141C89.8878 35.3522 88.81 38.7701 86.8909 38.7701V38.767Z" fill="black"/>
<path d="M102.877 28.1442C100.428 28.1442 99.0372 30.3074 99.0372 30.3074H98.9845L99.1946 28.3613H95.9883C95.834 29.6746 95.5413 31.6748 95.2521 33.1736L92.7283 46.4478H96.3594L97.3581 41.0839H97.4354C97.4354 41.0839 98.1803 41.5575 99.5653 41.5575C103.825 41.5575 106.612 37.1925 106.612 32.775C106.608 30.3298 105.534 28.1442 102.877 28.1442ZM99.4072 38.8226C98.861 38.8306 98.3298 38.6444 97.9084 38.2973L98.5132 34.9049C98.9335 32.6436 100.117 31.1448 101.379 31.1448C102.483 31.1448 102.825 32.17 102.825 33.1435C102.823 35.4836 101.432 38.8226 99.4072 38.8226Z" fill="black"/>
<path d="M111.791 22.9408C111.516 22.9399 111.244 22.994 110.99 23.0997C110.735 23.2055 110.505 23.3609 110.311 23.5567C110.118 23.7526 109.966 23.9851 109.863 24.2405C109.761 24.496 109.71 24.7693 109.715 25.0445C109.715 26.1261 110.398 26.8585 111.424 26.8585H111.476C112.607 26.8585 113.58 26.096 113.606 24.7548C113.606 23.7033 112.896 22.9408 111.791 22.9408Z" fill="black"/>
<path d="M106.717 41.2948H110.346L112.817 28.4362H109.162L106.717 41.2948Z" fill="black"/>
<path d="M122.046 28.4099H119.522L119.654 27.8057C119.864 26.5696 120.6 25.4649 121.81 25.4649C122.203 25.4655 122.595 25.5278 122.968 25.6495L123.676 22.8134C123.676 22.8134 123.045 22.4974 121.704 22.4974C120.416 22.4974 119.127 22.866 118.155 23.7073C116.919 24.7587 116.34 26.2838 116.051 27.8096L115.946 28.4138H114.263L113.737 31.1486H115.42L113.5 41.2986H117.131L119.046 31.1448H121.544L122.046 28.4099Z" fill="black"/>
<path d="M130.777 28.4362C130.777 28.4362 128.508 34.1532 127.489 37.2712H127.438C127.367 36.2669 126.543 28.4362 126.543 28.4362H122.73L124.913 40.2425C124.966 40.5052 124.939 40.6636 124.836 40.8475C124.415 41.6625 123.705 42.4513 122.863 43.0299C122.18 43.5298 121.417 43.845 120.813 44.0551L121.812 47.1323C122.548 46.9778 124.073 46.369 125.366 45.1599C127.022 43.6086 128.547 41.2152 130.125 37.955L134.569 28.4362H130.777Z" fill="black"/>
</g>
<defs>
<filter id="filter0_d_1261_1511" x="0" y="0" width="239" height="63.043" filterUnits="userSpaceOnUse" color-interpolation-filters="sRGB">
<feFlood flood-opacity="0" result="BackgroundImageFix"/>
<feColorMatrix in="SourceAlpha" type="matrix" values="0 0 0 0 0 0 0 0 0 0 0 0 0 0 0 0 0 0 127 0" result="hardAlpha"/>
<feOffset/>
<feGaussianBlur stdDeviation="2"/>
<feComposite in2="hardAlpha" operator="out"/>
<feColorMatrix type="matrix" values="0 0 0 0 0 0 0 0 0 0 0 0 0 0 0 0 0 0 0.25 0"/>
<feBlend mode="normal" in2="BackgroundImageFix" result="effect1_dropShadow_1261_1511"/>
<feBlend mode="normal" in="SourceGraphic" in2="effect1_dropShadow_1261_1511" result="shape"/>
</filter>
</defs>
</svg>
