<svg width="58" height="58" viewBox="0 0 58 58" fill="none" xmlns="http://www.w3.org/2000/svg">
<g filter="url(#filter0_d_1273_924)">
<rect x="4" y="4" width="50" height="50" rx="25" fill="white"/>
</g>
<path d="M33.3664 21.9939C32.7635 21.4015 31.7859 21.4015 31.1834 21.9939L21.3588 31.6449C20.1524 32.829 18.1979 32.829 16.9924 31.6449C15.7857 30.4604 15.7857 28.5402 16.9924 27.355L26.6279 17.8902C25.4221 16.7054 23.4669 16.7054 22.2612 17.8902L14.8084 25.211C12.3972 27.5801 12.3972 31.4205 14.8084 33.7898C17.2203 36.1591 21.1297 36.1591 23.5415 33.7898L33.3664 24.1386C33.9689 23.5464 33.9689 22.5861 33.3664 21.9939ZM36.6412 18.7771C34.2294 16.4076 30.32 16.4076 27.9081 18.7771L18.0838 28.4277C17.4813 29.0196 17.4813 29.9805 18.0838 30.5725C18.6867 31.1647 19.6638 31.1647 20.2668 30.5725L30.092 20.9219C31.2977 19.7371 33.2522 19.7371 34.4577 20.9219C35.0612 21.5137 36.0385 21.5137 36.6413 20.9219C37.2442 20.3291 37.2441 19.3693 36.6412 18.7771ZM39.9163 28.4277C39.3135 27.8361 38.3356 27.8361 37.7327 28.4277L27.9081 38.0787C26.7024 39.2631 24.7473 39.2631 23.5415 38.0787C22.939 37.4868 21.9617 37.4868 21.3588 38.0787C20.755 38.6711 20.755 39.6315 21.3588 40.2231C23.7696 42.5923 27.68 42.5923 30.0919 40.2231L39.9163 30.5725C40.5188 29.9806 40.5188 29.0197 39.9163 28.4277ZM43.1916 25.2111C40.7797 22.8422 36.8697 22.8422 34.4585 25.2111L24.6333 34.8623C24.0304 35.4539 24.0304 36.4148 24.6333 37.0067C25.2365 37.5993 26.2141 37.5993 26.8166 37.0067L36.6412 27.3557C37.8466 26.1711 39.8021 26.1711 41.0076 27.3557C42.2133 28.5403 42.2133 30.4605 41.0076 31.6451L31.3721 41.1105C32.5779 42.2945 34.5321 42.2945 35.7388 41.1105L43.1916 33.7897C45.6028 31.4202 45.6028 27.58 43.1916 25.2111Z" fill="#1A1918"/>
<defs>
<filter id="filter0_d_1273_924" x="0" y="0" width="58" height="58" filterUnits="userSpaceOnUse" color-interpolation-filters="sRGB">
<feFlood flood-opacity="0" result="BackgroundImageFix"/>
<feColorMatrix in="SourceAlpha" type="matrix" values="0 0 0 0 0 0 0 0 0 0 0 0 0 0 0 0 0 0 127 0" result="hardAlpha"/>
<feOffset/>
<feGaussianBlur stdDeviation="2"/>
<feComposite in2="hardAlpha" operator="out"/>
<feColorMatrix type="matrix" values="0 0 0 0 0 0 0 0 0 0 0 0 0 0 0 0 0 0 0.25 0"/>
<feBlend mode="normal" in2="BackgroundImageFix" result="effect1_dropShadow_1273_924"/>
<feBlend mode="normal" in="SourceGraphic" in2="effect1_dropShadow_1273_924" result="shape"/>
</filter>
</defs>
</svg>
