<svg width="66" height="66" viewBox="0 0 66 66" fill="none" xmlns="http://www.w3.org/2000/svg">
<g filter="url(#filter0_d_1261_2233)">
<rect x="4" y="4" width="58" height="58" rx="29" fill="white"/>
</g>
<path fill-rule="evenodd" clip-rule="evenodd" d="M41.5773 21L36.1751 31.5706H31.101L33.3618 27.1897H33.2603C31.3952 29.6131 28.6123 31.2085 24.6472 31.5706V27.2503C24.6472 27.2503 27.1838 27.1003 28.675 25.5311H24.6472V21.0001H29.174V24.7268L29.2756 24.7264L31.1254 21.0001H34.5489V24.7031L34.6505 24.703L36.5697 21H41.5773Z" fill="#146EF5"/>
<path d="M38.3467 43.9183H39.8046V35.5422H38.3467V43.9183Z" fill="#146EF5"/>
<path fill-rule="evenodd" clip-rule="evenodd" d="M30.3095 43.8328C30.6263 43.9647 30.9485 44.0306 31.2761 44.0306C31.8172 44.0306 32.3014 43.8988 32.7286 43.635C33.1558 43.3713 33.4869 43.0079 33.7219 42.5446C33.9569 42.0778 34.0743 41.5486 34.0743 40.957C34.0743 40.3655 33.9533 39.8363 33.7112 39.3695C33.4691 38.9027 33.1327 38.541 32.7019 38.2844C32.2711 38.0243 31.7816 37.896 31.2333 37.8995C30.8844 37.8995 30.5498 37.9672 30.2293 38.1027C29.9089 38.2381 29.6419 38.4305 29.4283 38.68C29.4118 38.6989 29.3958 38.7181 29.3802 38.7375V35.5476H27.917V43.9184H29.3696L29.3666 43.1364C29.4042 43.1825 29.4444 43.2275 29.487 43.2716C29.7184 43.5104 29.9926 43.6974 30.3095 43.8328ZM31.8047 42.4805C31.5662 42.6266 31.2938 42.6996 30.9876 42.6996C30.685 42.6996 30.4073 42.6248 30.1546 42.4751C29.9018 42.3219 29.7006 42.1135 29.5511 41.8497C29.4051 41.586 29.3321 41.2867 29.3321 40.9517C29.3286 40.6167 29.3998 40.3174 29.5457 40.0537C29.6953 39.7864 29.8964 39.5797 30.1492 39.4336C30.402 39.284 30.6815 39.2109 30.9876 39.2145C31.2938 39.2109 31.5662 39.2822 31.8047 39.4283C32.0468 39.5708 32.2319 39.7757 32.3601 40.043C32.4918 40.3067 32.5577 40.6096 32.5577 40.9517C32.5577 41.2938 32.4918 41.5967 32.3601 41.8604C32.2319 42.1241 32.0468 42.3308 31.8047 42.4805Z" fill="#146EF5"/>
<path d="M11 36.05H12.6662L14.1566 41.4983L15.7422 36.05H17.1307L18.8503 41.389L20.2815 36.05H21.8088L19.5552 43.9184H18.1187L16.37 38.7026L14.7649 43.9184H13.3124L11 36.05Z" fill="#146EF5"/>
<path fill-rule="evenodd" clip-rule="evenodd" d="M24.2695 44.0572C23.6891 44.0608 23.1658 43.9325 22.6994 43.6724C22.2366 43.4087 21.8717 43.0434 21.6046 42.5766C21.3412 42.1098 21.2095 41.577 21.2095 40.9783C21.2095 40.3975 21.3448 39.8719 21.6154 39.4015C21.8859 38.9311 22.2526 38.564 22.7154 38.3003C23.1783 38.0366 23.6945 37.9048 24.2641 37.9048C24.905 37.9048 25.4657 38.0473 25.9463 38.3324C26.4305 38.6175 26.7919 39.022 27.0304 39.5458C27.2725 40.0661 27.3597 40.6629 27.2921 41.3365H22.7177C22.7305 41.6048 22.7974 41.8489 22.9184 42.0688C23.0537 42.3111 23.2423 42.4999 23.4844 42.6354C23.7266 42.7708 23.9971 42.8385 24.2962 42.8385C24.524 42.8349 24.7359 42.7957 24.9316 42.7209C25.1275 42.6425 25.293 42.5374 25.4283 42.4055C25.5672 42.2737 25.6651 42.124 25.7221 41.9566H27.2494C27.1568 42.3663 26.9717 42.7316 26.694 43.0523C26.4162 43.3695 26.0674 43.6171 25.6472 43.7953C25.2272 43.9735 24.7679 44.0608 24.2695 44.0572ZM22.9237 39.8665C22.8384 40.0154 22.7793 40.1758 22.7463 40.3476H25.7786C25.7566 40.1305 25.6897 39.9328 25.5778 39.7543C25.4496 39.544 25.2752 39.3819 25.0545 39.2678C24.8338 39.1502 24.5845 39.0914 24.3069 39.0914C24.0113 39.0914 23.7426 39.1591 23.5004 39.2946C23.2584 39.43 23.0661 39.6206 22.9237 39.8665Z" fill="#146EF5"/>
<path d="M35.1474 38.0279C35.1474 37.5504 35.256 37.1263 35.4732 36.7557C35.6903 36.3815 35.9947 36.0911 36.3864 35.8844C36.7815 35.6742 37.2426 35.5655 37.7695 35.5583V36.8573C37.5238 36.8608 37.3138 36.9125 37.1393 37.0123C36.9684 37.1085 36.8367 37.2492 36.7441 37.4345C36.6589 37.6051 36.613 37.8029 36.6062 38.0279H37.7374V39.2626H36.6053V43.9184H35.1474V39.2626H34.2075V38.0279H35.1474Z" fill="#146EF5"/>
<path fill-rule="evenodd" clip-rule="evenodd" d="M43.5107 44.0467C42.9162 44.0467 42.3839 43.9167 41.914 43.6566C41.4476 43.3928 41.0809 43.0294 40.8139 42.5661C40.5504 42.0993 40.4187 41.5701 40.4187 40.9785C40.4187 40.3835 40.5504 39.8525 40.8139 39.3857C41.0809 38.9153 41.4476 38.55 41.914 38.2899C42.3839 38.0297 42.9162 37.8997 43.5107 37.8997C44.1088 37.8997 44.6429 38.0297 45.1128 38.2899C45.5863 38.55 45.9548 38.9135 46.2183 39.3803C46.4817 39.8471 46.6152 40.3799 46.6188 40.9785C46.6152 41.5701 46.4817 42.0993 46.2183 42.5661C45.9584 43.0294 45.5917 43.3928 45.1181 43.6566C44.6447 43.9167 44.1088 44.0467 43.5107 44.0467ZM43.5107 42.7051C43.824 42.7051 44.1017 42.6338 44.3438 42.4913C44.5859 42.3452 44.7728 42.1421 44.9046 41.8819C45.0363 41.6182 45.1021 41.3171 45.1021 40.9785C45.1021 40.6365 45.0363 40.3335 44.9046 40.0699C44.7728 39.8062 44.5859 39.603 44.3438 39.4605C44.1017 39.3144 43.824 39.2413 43.5107 39.2413C43.201 39.2413 42.9251 39.3144 42.683 39.4605C42.4445 39.603 42.2593 39.8062 42.1276 40.0699C41.9959 40.3335 41.9318 40.6365 41.9353 40.9785C41.9353 41.3171 42.0012 41.6182 42.1329 41.8819C42.2682 42.1421 42.4533 42.3452 42.6883 42.4913C42.9269 42.6338 43.201 42.7051 43.5107 42.7051Z" fill="#146EF5"/>
<path d="M48.194 38.0281H46.5706L48.3275 43.9186H49.748L50.9036 40.1563L52.1509 43.9186H53.5502L55.3127 38.0281H53.8442L52.8444 41.6946L51.7397 38.0281H50.3194L49.2201 41.7753L48.194 38.0281Z" fill="#146EF5"/>
<defs>
<filter id="filter0_d_1261_2233" x="0" y="0" width="66" height="66" filterUnits="userSpaceOnUse" color-interpolation-filters="sRGB">
<feFlood flood-opacity="0" result="BackgroundImageFix"/>
<feColorMatrix in="SourceAlpha" type="matrix" values="0 0 0 0 0 0 0 0 0 0 0 0 0 0 0 0 0 0 127 0" result="hardAlpha"/>
<feOffset/>
<feGaussianBlur stdDeviation="2"/>
<feComposite in2="hardAlpha" operator="out"/>
<feColorMatrix type="matrix" values="0 0 0 0 0 0 0 0 0 0 0 0 0 0 0 0 0 0 0.25 0"/>
<feBlend mode="normal" in2="BackgroundImageFix" result="effect1_dropShadow_1261_2233"/>
<feBlend mode="normal" in="SourceGraphic" in2="effect1_dropShadow_1261_2233" result="shape"/>
</filter>
</defs>
</svg>
